<?xml version="1.0" encoding="UTF-8" standalone="no"?>
<!-- Created with Inkscape (http://www.inkscape.org/) -->

<svg
   width="501.10394mm"
   height="151.33524mm"
   viewBox="0 0 501.10394 151.33524"
   version="1.1"
   id="svg5"
   xml:space="preserve"
   sodipodi:docname="black_crest_with_text.svg"
   inkscape:version="1.2.2 (732a01da63, 2022-12-09)"
   xmlns:inkscape="http://www.inkscape.org/namespaces/inkscape"
   xmlns:sodipodi="http://sodipodi.sourceforge.net/DTD/sodipodi-0.dtd"
   xmlns="http://www.w3.org/2000/svg"
   xmlns:svg="http://www.w3.org/2000/svg"><sodipodi:namedview
     id="namedview7"
     pagecolor="#505050"
     bordercolor="#eeeeee"
     borderopacity="1"
     inkscape:showpageshadow="0"
     inkscape:pageopacity="0"
     inkscape:pagecheckerboard="0"
     inkscape:deskcolor="#505050"
     inkscape:document-units="mm"
     showgrid="false"
     inkscape:zoom="0.5946522"
     inkscape:cx="907.25301"
     inkscape:cy="196.75367"
     inkscape:window-width="1920"
     inkscape:window-height="1009"
     inkscape:window-x="1072"
     inkscape:window-y="433"
     inkscape:window-maximized="1"
     inkscape:current-layer="layer1" /><defs
     id="defs2" /><g
     inkscape:label="Layer 1"
     inkscape:groupmode="layer"
     id="layer1"
     transform="translate(464.83499,115.66485)"><path
       style="fill:#000000;stroke-width:0.264583"
       d="m -405.40625,34.612008 c -0.99298,-0.579509 -1.88595,-1.056918 -1.98437,-1.060908 -0.45008,-0.01826 -8.58166,-5.469276 -8.73381,-5.854737 -0.0485,-0.122883 -0.21787,-0.223425 -0.37635,-0.223425 -0.15849,0 -0.9726,-0.595313 -1.80915,-1.322917 -0.83654,-0.727604 -1.57801,-1.322916 -1.64771,-1.322916 -0.0697,0 -0.5376,-0.386953 -1.03978,-0.859896 -0.50217,-0.472943 -2.13141,-1.989759 -3.62053,-3.370705 -2.3241,-2.155274 -3.79692,-3.722385 -7.83551,-8.337108 -0.38206,-0.436562 -1.54687,-1.924843 -2.58845,-3.3072907 -1.04159,-1.382448 -1.95485,-2.5730734 -2.02946,-2.6458338 -0.37315,-0.3638735 -3.96799,-5.85990168 -3.96799,-6.06651478 0,-0.1316646 -0.0954,-0.2790746 -0.21191,-0.3275833 -0.11655,-0.048506 -0.54958,-0.683506 -0.96229,-1.41111022 -0.4127,-0.7276042 -0.92171,-1.6205729 -1.13111,-1.984375 -1.34464,-2.3360301 -2.0771,-3.7182107 -3.7156,-7.0114582 -2.2673,-4.557078 -3.50409,-7.173146 -3.50409,-7.411853 0,-0.0996 -0.17469,-0.556273 -0.3882,-1.014828 -1.01736,-2.185032 -2.16966,-5.219022 -3.68298,-9.697278 -0.90974,-2.692135 -1.79465,-5.154856 -1.96645,-5.47271 -0.17181,-0.317855 -0.31237,-0.804206 -0.31237,-1.080781 0,-0.276574 -0.22076,-1.207137 -0.49057,-2.067914 -2.75594,-8.792216 -6.67844,-29.203835 -6.65892,-34.651199 0.003,-0.880401 -0.0981,-1.713838 -0.22508,-1.852083 -0.12695,-0.138245 -0.30174,-2.1706 -0.38844,-4.516345 l -0.15762,-4.264991 2.57125,-0.728768 c 4.76436,-1.350359 13.67532,-4.268065 15.80042,-5.173509 0.29104,-0.124005 1.06495,-0.400003 1.71979,-0.613328 0.65484,-0.213326 1.54781,-0.575778 1.98437,-0.805447 0.43657,-0.229669 0.87952,-0.418315 0.98435,-0.419212 0.10483,-7.93e-4 0.84134,-0.299286 1.63669,-0.663088 0.79535,-0.363802 1.5352,-0.661458 1.6441,-0.661458 0.22907,0 1.92726,-0.750397 4.20153,-1.856576 0.87312,-0.424677 2.54,-1.22004 3.70417,-1.767472 1.16416,-0.547432 2.17619,-1.073254 2.24895,-1.168495 0.0728,-0.09524 0.72761,-0.460798 1.45521,-0.81235 1.58068,-0.763725 4.97278,-2.636627 5.15938,-2.848685 0.26961,-0.30638 2.3782,-1.60059 2.60776,-1.60059 0.13082,0 0.39637,-0.19099 0.59011,-0.42443 0.19374,-0.23345 0.59527,-0.51858 0.89229,-0.63363 2.00896,-0.77817 11.59387,-9.37901 13.38864,-12.01405 0.35484,-0.52096 0.77208,-0.94801 0.9272,-0.94901 0.29478,-0.002 1.96691,1.76792 1.96691,2.08181 0,0.29616 7.2513,7.1768 7.56342,7.1768 0.0853,0 0.53178,0.35113 0.99218,0.78028 0.84912,0.79148 2.8266,2.20455 5.46732,3.90687 0.80036,0.51595 2.0707,1.33929 2.82296,1.829641 0.75227,0.490355 1.42161,0.891554 1.48744,0.891554 0.0658,0 1.23972,0.634307 2.60867,1.409572 2.24355,1.270574 4.32139,2.308778 8.69135,4.342675 0.80036,0.372512 1.88813,0.897523 2.41727,1.16669 0.52914,0.269168 1.0917,0.489396 1.25014,0.489396 0.15845,0 1.06795,0.357188 2.02113,0.79375 0.95317,0.436563 1.90865,0.79375 2.12329,0.79375 0.21464,0 0.39025,0.113668 0.39025,0.252595 0,0.138925 0.41803,0.331018 0.92896,0.426868 0.51093,0.09585 0.99421,0.279839 1.07395,0.408864 0.0797,0.129024 0.4118,0.23459 0.73791,0.23459 0.32611,0 0.70604,0.104428 0.84428,0.23206 0.13825,0.127633 0.9062,0.439926 1.70656,0.693981 0.80037,0.254056 1.56832,0.566349 1.70657,0.693981 0.13824,0.127633 0.42727,0.232061 0.64228,0.232061 0.215,0 1.35205,0.340746 2.52677,0.757214 1.93707,0.686744 3.94426,1.300191 9.61032,2.93716 l 1.91823,0.554191 0.002,1.646029 c 0.003,2.386065 -0.50851,9.118473 -0.94886,12.493948 -0.20882,1.600729 -0.37885,3.416432 -0.37782,4.034896 0.001,0.618463 -0.11721,1.124479 -0.26274,1.124479 -0.14552,0 -0.26704,0.565547 -0.27005,1.256771 -0.003,0.691223 -0.30609,2.68552 -0.67352,4.43177 -0.36743,1.74625 -0.77585,3.889375 -0.90759,4.7625 -0.26513,1.757212 -0.75381,3.955066 -1.76484,7.9375 -0.36944,1.455209 -0.73438,3.062552 -0.81098,3.571875 -0.0766,0.509323 -0.21408,0.985573 -0.30551,1.058334 -0.0914,0.07276 -0.38407,1.02526 -0.6503,2.116666 -0.96786,3.967644 -4.34514,13.720956 -6.2977,18.187221 -0.26969,0.616878 -0.49034,1.194196 -0.49034,1.28293 0,0.232516 -0.62261,1.595339 -2.68022,5.866688 -0.99967,2.075313 -1.81763,3.8162682 -1.81763,3.868788 0,0.097822 -3.37889,6.0652316 -4.51187,7.96833182 -0.34653,0.5820834 -0.72327,1.0980209 -0.83721,1.146527 -0.11394,0.048509 -0.20717,0.2073222 -0.20717,0.3529197 0,0.56628508 -6.92028,10.22191448 -8.67735,12.10722248 -0.39345,0.422158 -1.84645,1.998202 -3.2289,3.502321 -1.38245,1.504116 -3.80515,3.925385 -5.38379,5.380593 -1.57864,1.455208 -3.06692,2.839609 -3.30729,3.076448 -1.35679,1.336831 -8.99518,6.741099 -10.49145,7.422846 -0.36367,0.165698 -0.66122,0.393197 -0.66122,0.505555 0,0.112355 -0.26789,0.286803 -0.59531,0.387662 -0.32742,0.100857 -1.07156,0.499859 -1.65364,0.886669 -1.09521,0.72779 -3.41398,1.879566 -3.76743,1.871348 -0.11073,-0.0026 -1.01376,-0.478825 -2.00675,-1.058333 z m 3.28613,-3.877197 c 0.4953,-0.243263 0.96008,-0.511344 1.03284,-0.595736 0.0728,-0.08439 0.48948,-0.330131 0.92604,-0.546089 0.75126,-0.371631 1.03396,-0.543327 2.8837,-1.751391 3.64247,-2.37889 6.10196,-4.253611 9.41942,-7.179852 3.88793,-3.429434 9.02479,-8.713031 11.18301,-11.5024427 0.25705,-0.33224 0.89364,-1.135121 1.41463,-1.784184 0.52098,-0.6490648 1.31484,-1.7206273 1.76411,-2.3812495 0.44928,-0.6606249 0.88905,-1.2606682 0.97727,-1.3334286 0.64051,-0.528283 5.30961,-8.0358747 6.71876,-10.8033185 0.27183,-0.5338524 0.56949,-1.0301711 0.66146,-1.1029315 0.26658,-0.2108967 3.6771,-7.2240512 5.59705,-11.5093752 0.82702,-1.845913 2.57498,-6.277965 3.28699,-8.334375 1.99586,-5.764406 3.58904,-10.789259 3.58737,-11.314528 -5.3e-4,-0.183875 0.10509,-0.541062 0.23483,-0.79375 0.72058,-1.403403 4.00168,-15.825036 3.99867,-17.575585 -8e-4,-0.391594 0.11783,-0.785575 0.26335,-0.875512 0.14552,-0.08994 0.26458,-0.500843 0.26458,-0.913122 0,-0.412279 0.34594,-2.875801 0.76874,-5.474489 0.42281,-2.598689 0.84776,-5.915514 0.94432,-7.370722 0.0966,-1.455209 0.28642,-2.758943 0.42189,-2.897188 0.13547,-0.138245 0.2463,-1.151533 0.2463,-2.251752 v -2.000401 l -2.84427,-0.863624 c -4.41225,-1.33972 -8.15429,-2.568408 -11.04635,-3.627035 -1.45521,-0.532673 -3.06255,-1.091856 -3.57187,-1.242632 -0.50933,-0.150772 -1.46183,-0.543644 -2.11667,-0.873045 -0.65485,-0.329404 -1.57758,-0.682578 -2.05052,-0.784828 -0.47294,-0.102254 -0.8599,-0.295519 -0.8599,-0.429477 0,-0.133956 -0.17827,-0.24356 -0.39617,-0.24356 -0.21789,0 -1.20015,-0.366501 -2.18281,-0.814448 -0.98265,-0.447945 -2.44149,-1.113288 -3.24185,-1.478534 -0.80037,-0.36525 -1.6338,-0.772938 -1.85208,-0.905976 -0.21829,-0.133038 -0.65057,-0.352322 -0.96064,-0.487296 -2.15286,-0.937148 -5.82213,-2.83193 -6.18311,-3.192913 -0.0728,-0.07276 -0.60855,-0.363657 -1.19063,-0.646438 -0.58208,-0.28278 -1.43734,-0.788796 -1.90058,-1.124479 -0.46323,-0.335683 -0.89529,-0.610333 -0.96013,-0.610333 -0.11821,0 -2.26663,-1.294355 -3.75413,-2.261746 -0.97961,-0.63709 -5.70219,-4.146585 -6.66452,-4.952605 -0.72221,-0.60491 -2.17706,-1.96766 -4.56473,-4.27576 l -1.34858,-1.30364 -0.85471,0.82434 c -0.47008,0.45339 -1.63508,1.57581 -2.58888,2.49427 -0.95379,0.91846 -2.67867,2.3843 -3.83306,3.25744 -1.15438,0.87312 -2.33122,1.79585 -2.61519,2.05051 -0.28397,0.25467 -0.67619,0.46303 -0.8716,0.46303 -0.19541,0 -0.41807,0.1636 -0.4948,0.36357 -0.0767,0.19996 -0.54925,0.584226 -1.05003,0.853915 -0.50078,0.269689 -0.91052,0.582331 -0.91052,0.69476 0,0.112429 -0.10666,0.204416 -0.23702,0.204416 -0.13037,0 -1.37498,0.715212 -2.7658,1.58936 -1.39082,0.874148 -2.8022,1.710531 -3.13641,1.858629 -0.3342,0.148098 -1.20295,0.607153 -1.93056,1.020121 -1.82529,1.035984 -7.02265,3.61789 -7.74305,3.846538 -0.32523,0.103225 -0.59132,0.279871 -0.59132,0.392552 0,0.11268 -0.50602,0.351832 -1.12448,0.53145 -0.61846,0.179617 -1.60073,0.54542 -2.18281,0.812892 -2.12299,0.975535 -3.54602,1.590125 -3.68181,1.590125 -0.0764,0 -0.8256,0.314074 -1.66482,0.697939 -0.83922,0.383866 -1.82501,0.792477 -2.19065,0.908024 -0.36564,0.115546 -2.21262,0.762034 -4.10439,1.43664 -1.89177,0.674605 -3.97536,1.387437 -4.63021,1.584071 -1.29882,0.390001 -4.5258,1.389147 -6.97794,2.160524 l -1.55399,0.488844 0.168,2.248958 c 0.21606,2.892396 1.11003,10.224995 1.66126,13.626042 0.23585,1.455208 0.50769,3.300677 0.60408,4.101041 0.2285,1.897256 1.36757,7.258079 2.81095,13.229167 0.19347,0.800365 0.47853,1.99099 0.63346,2.645833 0.62809,2.654729 3.54942,12.167569 4.00056,13.027139 0.13262,0.252688 0.24112,0.641255 0.24112,0.863486 0,0.222232 0.11259,0.610799 0.2502,0.863487 0.1376,0.252687 0.62081,1.471461 1.07379,2.708388 0.45299,1.236927 0.99524,2.62414 1.20502,3.082695 0.20977,0.458555 0.38141,0.954789 0.38141,1.102741 0,0.147953 0.29766,0.861624 0.66146,1.585939 0.3638,0.724313 0.66146,1.508001 0.66146,1.74153 0,0.233526 0.10288,0.424595 0.22863,0.424595 0.12575,0 0.44123,0.565547 0.70106,1.256771 1.26509,3.36546 6.58905,13.1831692 9.30074,17.15113082 2.6029,3.80875908 3.51929,5.09361008 3.9155,5.48982098 0.22338,0.2233798 0.40615,0.5047404 0.40615,0.6252422 0,0.1205018 0.53391,0.8136173 1.18647,1.5402533 0.65256,0.726636 1.18835,1.411655 1.19063,1.522264 0.0143,0.690828 9.93394,10.7593057 12.49908,12.6865617 0.33107,0.24874 1.24967,0.992881 2.04134,1.653646 0.79166,0.660768 1.5273,1.201394 1.63474,1.201394 0.10745,0 0.35913,0.163777 0.55931,0.36395 0.43465,0.434657 5.60975,3.908335 6.55301,4.398571 0.3638,0.189079 0.72099,0.415472 0.79375,0.503094 0.1913,0.230381 1.93237,1.047507 2.27445,1.067465 0.15955,0.0093 0.69533,-0.182113 1.19063,-0.425374 z m -1.92483,-0.696989 c -0.19229,-0.190045 -0.57127,-0.429532 -0.84217,-0.532193 -0.66653,-0.252595 -6.5583,-4.089189 -7.81891,-5.091505 -0.23088,-0.183581 -1.43183,-1.132377 -2.66875,-2.10843 -2.92911,-2.311349 -2.69985,-2.101093 -7.14375,-6.551734 -3.87234,-3.878209 -5.1403,-5.261007 -7.14679,-7.7940427 l -1.10031,-1.3890624 h 8.88605 8.88605 v 8.4666661 8.466667 h 9.525 9.525 v -9.260417 c 0,-5.4179567 0.10036,-9.2604161 0.24188,-9.2604161 0.30888,0 4.61761,1.6419803 6.19819,2.3620174 0.66209,0.30162 1.36512,0.548399 1.56229,0.548399 0.19716,0 0.47158,0.104429 0.60982,0.232061 0.13825,0.127632 0.87504,0.434393 1.63731,0.681688 0.76227,0.247296 1.44381,0.543254 1.51454,0.657688 0.0707,0.114433 0.66517,0.358294 1.321,0.5419147 0.65582,0.183621 1.31587,0.482616 1.46677,0.664437 0.366,0.44101 -7.41527,8.326107 -10.71535,10.858318 -1.30968,1.004945 -2.44078,1.893975 -2.51354,1.97562 -0.0728,0.08164 -0.78713,0.618723 -1.5875,1.193509 -0.80036,0.574786 -1.49489,1.136404 -1.5434,1.248039 -0.0485,0.111636 -0.19841,0.202975 -0.33312,0.202975 -0.13471,0 -1.22612,0.632614 -2.42535,1.405806 -2.76994,1.785897 -4.58264,2.827528 -4.92061,2.827528 -0.1456,0 -0.42205,-0.155491 -0.61435,-0.345533 z m 25.82862,-21.7456327 c -0.42804,-0.194363 -1.61168,-0.667444 -2.63033,-1.051285 -1.01864,-0.3838417 -2.14974,-0.8266219 -2.51354,-0.9839564 -0.96669,-0.4180655 -1.21059,-0.5155142 -7.14375,-2.8542562 -2.98318,-1.1759142 -5.66208,-2.2422141 -5.95313,-2.3695528 -0.29104,-0.12734128 -1.24354,-0.49870518 -2.11666,-0.82525388 -0.87313,-0.3265488 -1.94469,-0.7421642 -2.38125,-0.923589 -3.27461,-1.36085262 -5.51212,-2.23844112 -5.70715,-2.23844112 -0.12666,0 -0.8589,-0.2824507 -1.6272,-0.6276684 -1.33684,-0.6006809 -2.59709,-1.1050191 -6.68857,-2.6766838 -1.01864,-0.3912949 -2.20927,-0.8670634 -2.64583,-1.0572644 -0.68107,-0.2967249 -2.18079,-0.9076214 -4.23333,-1.724406 -0.29105,-0.1158161 -0.94589,-0.3602329 -1.45521,-0.5431499 -0.50933,-0.1829197 -1.55465,-0.6116534 -2.32295,-0.9527434 -0.76829,-0.341093 -1.51405,-0.620167 -1.65723,-0.620167 -0.14319,0 -0.46708,-0.105172 -0.71977,-0.233715 -0.71225,-0.362326 -1.66221,-0.764831 -3.10526,-1.315728 l -1.32292,-0.505034 -0.0675,-24.240471 -0.0675,-24.240469 h 29.23784 29.23785 v 17.065625 17.065625 h -9.92188 -9.92187 v -8.598959 -8.598958 h -9.525 -9.525 v 10.282804 10.282803 l 1.25677,0.466352 c 0.69122,0.256495 1.61396,0.622697 2.05052,0.813782 0.43656,0.191087 2.2225,0.903679 3.96875,1.583537 1.74625,0.679857 3.65125,1.449863 4.23333,1.711123 0.58209,0.261258 1.71318,0.714492 2.51354,1.007185 1.35307,0.494815 18.00574,7.175762 19.18229,7.695811 1.21952,0.539041 2.47862,1.0514354 4.0349,1.6420119 l 1.65365,0.6275228 v 6.6820759 c 0,4.2783284 -0.0952,6.6820759 -0.26459,6.6820759 -0.14552,0 -0.26458,0.125521 -0.26458,0.2789317 0,0.1534134 -0.35664,0.659429 -0.79253,1.1244792 -0.43589,0.4650528 -0.79513,0.9646099 -0.79832,1.1101309 -0.003,0.145521 -0.2786,0.523036 -0.61204,0.838925 -0.54869,0.519814 -0.68013,0.54079 -1.38449,0.220951 z m -62.08881,-16.4567026 c -0.17962,-0.4085166 -0.40376,-0.8022881 -0.49809,-0.8750485 -0.26326,-0.2030598 -4.61793,-9.2518942 -5.02947,-10.4510422 -0.19977,-0.582083 -0.4359,-1.117864 -0.52472,-1.190625 -0.0888,-0.07276 -0.30045,-0.558747 -0.47027,-1.079968 -0.16981,-0.521224 -0.54425,-1.409602 -0.83209,-1.974173 -0.28783,-0.564573 -0.52333,-1.19131 -0.52333,-1.39275 0,-0.201441 -0.16209,-0.682281 -0.3602,-1.068536 -0.1981,-0.386255 -0.50055,-1.119 -0.6721,-1.628323 -1.05257,-3.124993 -2.70717,-8.181652 -3.42416,-10.464622 l -0.83521,-2.659415 v -14.207773 c 0,-7.814275 0.0444,-14.207773 0.0987,-14.207773 0.14794,0 2.35606,0.979382 5.3253,2.361962 1.45521,0.677598 5.29035,2.417651 8.52254,3.866787 l 5.87671,2.634793 0.0103,7.606771 c 0.006,4.183723 -0.0375,7.60677 -0.0958,7.60677 -0.0584,0 -0.92156,-0.34789 -1.91823,-0.773088 l -1.81212,-0.773092 -0.13229,19.624654 -0.13229,19.6246515 -1.12325,0.081299 c -1.01174,0.073229 -1.15567,0.00757 -1.44982,-0.6614584 z m 71.40883,0.5360617 c -0.26887,-0.2688669 -0.20232,-13.1313004 0.0702,-13.5618384 0.19933,-0.314957 0.51336,-0.255114 1.91417,0.364776 0.92165,0.40785 2.15198,0.952019 2.73406,1.20926 0.58208,0.257241 1.49755,0.649528 2.03438,0.871746 l 0.97604,0.404037 -0.72305,1.673892 c -0.39767,0.920642 -1.19272,2.566861 -1.76678,3.658267 -0.57405,1.091406 -1.10544,2.162969 -1.18085,2.38125 -0.27733,0.8026772 -1.40401,2.7839249 -1.69039,2.9725119 -0.37009,0.2437157 -2.13073,0.2631229 -2.36775,0.026088 z m 7.36423,-13.4618364 c -0.43656,-0.206367 -2.46062,-1.097841 -4.49791,-1.981049 -2.03729,-0.883208 -4.06136,-1.768533 -4.49792,-1.967391 -0.43656,-0.198856 -1.29977,-0.562854 -1.91823,-0.808882 -1.12068,-0.445815 -1.36208,-0.740958 -0.85989,-1.051327 0.16446,-0.101648 0.26458,-2.560386 0.26458,-6.497907 0,-3.483912 0.0967,-6.334385 0.21489,-6.334385 0.11818,0 0.71513,0.241692 1.32654,0.537094 0.61141,0.295405 1.40768,0.649645 1.76949,0.787201 l 0.65783,0.250108 v -24.158728 c 0,-13.287301 0.0619,-24.220646 0.13759,-24.29632 0.11876,-0.118755 4.27884,1.428409 5.81553,2.162839 0.29105,0.139097 1.47506,0.572987 2.63114,0.964198 1.15609,0.391213 2.40625,0.870082 2.77813,1.064156 0.37188,0.194072 0.84252,0.353592 1.04586,0.354489 0.20334,7.94e-4 1.06654,0.255709 1.91823,0.566248 l 1.54852,0.564618 v 20.252547 c 0,22.74216 0.2333,19.645726 -2.01714,26.772384 -2.23028,7.062814 -4.69041,13.247872 -5.25522,13.212246 -0.14755,-0.0093 -0.62545,-0.185769 -1.06202,-0.392139 z m -47.75729,-13.434261 -2.51354,-1.133491 -0.073,-4.02097 -0.073,-4.020969 h 2.78501 2.78502 v 5.159375 c 0,2.837657 -0.0893,5.157163 -0.19844,5.154462 -0.10914,-0.0027 -1.32953,-0.514985 -2.71198,-1.138407 z m 11.77396,-2.258774 c -1.16416,-0.53303 -2.26549,-1.064205 -2.44739,-1.180391 -0.22998,-0.146891 -0.33073,-1.052798 -0.33073,-2.973755 v -2.76251 h 2.77812 2.77813 v 3.96875 c 0,3.012398 -0.0797,3.962522 -0.33073,3.942901 -0.1819,-0.01421 -1.28323,-0.461963 -2.4474,-0.994995 z m -24.73854,-32.448947 v -6.482292 h -7.67292 -7.67291 v 5.55625 c 0,3.055938 -0.051,5.55625 -0.11327,5.55625 -0.0623,0 -2.53285,-1.132885 -5.49011,-2.517521 -2.95726,-1.384636 -6.47284,-3.021745 -7.81242,-3.638021 l -2.43559,-1.1205 -0.0118,-4.515744 -0.0118,-4.515744 1.52135,-0.474843 c 2.49212,-0.777835 8.95425,-3.156852 11.57552,-4.261495 0.43657,-0.183976 1.86532,-0.773092 3.175,-1.309153 1.30969,-0.536059 3.15516,-1.35163 4.10104,-1.812378 l 1.7198,-0.837726 12.50156,-0.07362 12.50156,-0.07362 v 13.501225 13.501224 h -7.9375 -7.9375 z m 21.96042,-7.011459 v -13.49375 h 7.9375 7.9375 v 13.49375 13.49375 h -7.9375 -7.9375 z m 65.79305,79.7277774 c -0.20179,-0.2017844 -0.24589,-65.7048604 -0.0442,-65.7048604 0.0727,0 0.69777,0.289428 1.38907,0.64317 0.6913,0.353746 3.40003,1.621015 6.01941,2.816154 5.80023,2.646466 7.34312,3.354022 9.99382,4.583059 1.13098,0.524399 2.11293,0.95345 2.18211,0.95345 0.0692,0 0.87023,0.339993 1.78013,0.755542 0.90989,0.415547 2.84498,1.263033 4.30018,1.883301 1.45521,0.620271 2.87264,1.245302 3.14983,1.388957 0.2772,0.143658 1.319,0.592863 2.31511,0.998231 l 1.81111,0.737036 v -10.819032 -10.819035 h -8.33438 -8.33437 v 5.956443 5.956446 l -1.05308,-0.664779 c -0.57919,-0.365625 -1.17003,-0.664776 -1.31297,-0.664776 -0.14294,0 -1.42523,-0.552792 -2.84953,-1.228426 -1.4243,-0.675635 -3.95885,-1.868909 -5.63234,-2.651723 -1.67349,-0.782815 -3.57849,-1.688539 -4.23333,-2.012723 l -1.19063,-0.58942 -0.0695,-9.458854 -0.0695,-9.458854 h 24.87417 24.87417 v 29.897916 c 0,20.022836 -0.0886,29.897917 -0.26817,29.897917 -0.26869,0 -5.80232,-2.367254 -8.38027,-3.585033 -0.75483,-0.356565 -1.43912,-0.6483 -1.52065,-0.6483 -0.15976,0 -2.89607,-1.230226 -5.04824,-2.269657 -0.7297,-0.352417 -1.41202,-0.64076 -1.51627,-0.64076 -0.10426,0 -1.20617,-0.47625 -2.44869,-1.058333 -1.24252,-0.582084 -2.34425,-1.058334 -2.44828,-1.058334 -0.10404,0 -0.84589,-0.31551 -1.64856,-0.701132 -1.78162,-0.855935 -2.71754,-1.274559 -6.61878,-2.960476 -2.1336,-0.922033 -3.10079,-1.223645 -3.2371,-1.009462 -0.10691,0.167994 -0.19621,9.622086 -0.19843,21.009091 l -0.004,20.7036462 h -8.0257 c -4.41413,0 -8.10507,-0.079375 -8.20208,-0.1763898 z m 89.6975,0.00376 c -0.0991,-0.099081 -0.18014,-3.487856476378 -0.18014,-7.5306184 v -7.350472 l 0.85989,0.289209 c 0.47294,0.159064 0.97896,0.379169 1.12448,0.489116 0.14552,0.10995 1.51474,0.7562931 3.04271,1.4363199 3.12263,1.3897345 3.2982,1.4672442 8.06978,3.5626384 l 3.43958,1.5104559 v 3.81684482 3.81684738 l -8.08807,0.0699 c -4.44845,0.038447 -8.16915,-0.011165 -8.26823,-0.1102439 z m 24.16151,-14.3780934 v -14.553441 h 8.20208 8.20209 v 7.14375 7.14375 h 8.33437 8.33438 v -7.805208 c 0,-8.830119 -0.15746,-8.310822 2.16611,-7.14375 0.72433,0.363802 1.43198,0.661458 1.57258,0.661458 0.14057,0 0.75589,0.247452 1.36732,0.549892 0.61142,0.30244 1.76654,0.769363 2.5669,1.037608 0.80037,0.268246 1.95549,0.735169 2.56691,1.037609 0.61143,0.30244 1.2378,0.549891 1.39195,0.549891 0.15414,0 0.78496,0.228222 1.40184,0.507162 0.61688,0.278939 1.68836,0.749038 2.38109,1.044665 l 1.25952,0.537503 -0.0689,11.8537729 -0.0689,11.8537725 -24.80468,0.067503 -24.80469,0.067501 z m 56.00525,14.3761223 c -0.098,-0.097996 -0.17817,-9.4452043 -0.17817,-20.7715773 v -20.593402 h 16.66875 16.66875 v 5.423958 5.423958 h -10.45104 -10.45104 v 9.926752 9.926751 l 6.15156,-0.071022 6.15156,-0.071022 0.0709,-6.416146 c 0.039,-3.52888 0.0985,-6.415739 0.13229,-6.415238 0.12864,0.0019 3.83955,1.543266 4.31993,1.794338 0.27721,0.144875 1.81369,0.820827 3.41442,1.502116 1.60073,0.681289 3.29888,1.436603 3.77368,1.678479 l 0.86325,0.439778 -0.0695,9.1322948 -0.0695,9.1322948 -18.40881,0.067932 c -10.12483,0.037362 -18.48898,-0.01225 -18.58698,-0.1102439 z m 42.95828,-29.7845823 c 0.007,-23.642606 0.0772,-29.851086 0.33073,-29.410644 0.17674,0.307062 2.97116,3.39477 6.2098,6.861574 l 5.8884,6.303277 -0.0676,23.036345 -0.0676,23.0363424 -6.15156,0.071022 -6.15157,0.071022 0.009,-29.9689384 z m 25.307293,29.7876382 c -0.0997,-0.099677 -0.18124,-7.9132298 -0.18124,-17.3634502 v -17.182225 l -2.8875,-3.345035 c -1.588143,-1.839769 -3.374083,-3.824128 -3.968753,-4.409683 -0.59468,-0.585557 -1.08125,-1.158076 -1.08125,-1.272267 0,-0.208257 -4.13105,-4.872586 -5.19462,-5.86517 -0.31184,-0.291042 -2.12778,-2.255573 -4.03542,-4.365625 -1.90765,-2.110052 -4.18873,-4.610365 -5.0691,-5.55625 -2.74802,-2.952559 -2.89878,-3.205927 -2.89878,-4.871717 v -1.488036 l 6.13992,0.07102 6.13995,0.07102 4.18235,4.7625 c 2.30031,2.619375 4.47844,5.070078 4.84029,5.446006 0.36184,0.37593 0.657913,0.770858 0.657913,0.87762 0,0.277328 2.72227,3.333665 2.96929,3.333665 0.11313,0 0.20571,-3.274218 0.20571,-7.276041 v -7.276042 h 6.21874 6.21874 l -0.06718,32.874479 -0.06718,32.8744795 -5.970323,0.070988 c -3.28369,0.039045 -6.051887,-0.010557 -6.151557,-0.1102439 z m 26.13636,-0.1541965 c -0.07038,-0.1846421 -0.09726,-12.1824327 -0.05977,-26.6617557 l 0.06821,-26.326042 h 6.085417 6.085416 v 26.590625 26.5906254 l -6.025674,0.071131 c -4.677092,0.055211 -6.054275,-0.004 -6.153599,-0.2645837 z m 26.51572,0.1541965 c -0.09969,-0.099677 -0.181239,-5.4596665 -0.181239,-11.9110919 0,-9.2067563 0.07115,-11.7301593 0.330729,-11.7312543 0.2735,-0.0011 4.826767,1.899398 8.003643,3.340761 0.43657,0.198072 1.50813,0.636413 2.38125,0.974093 l 1.5875,0.613963 v 9.3763913 9.3763941 l -5.970321,0.070988 c -3.28369,0.039045 -6.051893,-0.010557 -6.151562,-0.1102442 z m 24.865993,-0.00484 c -0.097,-0.097012 -0.1764,-3.54708088 -0.1764,-7.6668153 0,-8.7093289 0.47003,-7.5637679 -3.83646,-9.3501179 -1.45521,-0.603626 -3.24114,-1.372294 -3.96875,-1.70815 -0.7276,-0.335857 -2.39448,-1.057784 -3.70416,-1.604278 -1.30969,-0.546494 -2.73844,-1.152218 -3.175,-1.346052 -0.43657,-0.193831 -2.16297,-0.910166 -3.836463,-1.591852 -1.673489,-0.681686 -3.631644,-1.519798 -4.351416,-1.862471 -0.719799,-0.342672 -1.464707,-0.623041 -1.655339,-0.623041 -0.283263,0 -0.334222,-3.614105 -0.278792,-19.777604 l 0.06784,-19.777604 h 18.52083 18.5208401 l 0.0681,16.444357 0.0682,16.444359 -2.68272,2.946795 c -1.4754801,1.620737 -2.7563001,2.908906 -2.8462601,2.862593 -1.81141,-0.932506 -8.63219,-4.169979 -8.78541,-4.169979 -0.61557,0 -0.41851,-0.730306 0.66715,-2.472166 l 1.20782,-1.937875 v -9.701228 -9.701231 h -6.2177 -6.21771 l 0.003,10.781771 0.003,10.781771 0.98917,0.445923 c 2.77524,1.25113 5.90169,2.596785 6.03327,2.596785 0.0817,0 0.94477,0.373518 1.91786,0.83004 0.97311,0.456523 2.42411,1.120585 3.22447,1.475695 0.80037,0.355108 1.93146,0.865598 2.51354,1.13442 2.42208,1.118584 9.0399701,3.949544 9.5911501,4.102846 l 0.59531,0.165576 V -7.5665232 3.6604382 h -6.0413101 c -3.32274,0 -6.12071,-0.079375 -6.21771,-0.1763898 z m 30.25068,-8.979135 c 0,-8.9289412 0.013,-9.1559142 0.49842,-8.8022722 0.27414,0.199649 1.41584,0.993659 2.53712,1.764461 1.12128,0.770806 2.79855,1.991196 3.72732,2.7119796 0.92874,0.7207858 1.76244,1.3105183 1.85261,1.3105183 0.0902,0 0.98925,0.6136693 1.99792,1.3637127 l 1.83391,1.3637128 -0.0721,4.655558 -0.0721,4.6555581 -6.15156,0.071022 -6.15157,0.071022 z M -231.10089,-8.2168399 c -1.16877,-0.5496798 -2.71659,-1.2205309 -3.43958,-1.4907789 -0.723,-0.2702507 -1.55461,-0.6426782 -1.84803,-0.8276222 -0.29342,-0.184941 -1.00779,-0.504912 -1.5875,-0.711041 -0.5797,-0.206132 -2.06603,-0.847373 -3.30296,-1.424985 -1.23692,-0.577609 -2.9038,-1.314469 -3.70416,-1.637461 -0.80037,-0.322996 -1.99099,-0.832745 -2.64584,-1.132777 -3.01152,-1.379797 -4.0997,-1.861526 -7.9375,-3.513868 -4.9498,-2.131115 -5.79607,-2.505368 -7.67291,-3.393278 -0.80037,-0.378643 -2.11005,-0.940253 -2.91042,-1.248021 -1.35121,-0.519589 -2.0412,-0.824413 -5.73803,-2.534955 -0.75483,-0.34926 -1.43912,-0.635018 -1.52065,-0.635018 -0.0815,0 -0.8927,-0.33804 -1.80259,-0.7512 -0.9099,-0.413157 -1.98178,-0.886854 -2.38196,-1.052661 l -0.7276,-0.301461 v -27.522339 -27.522339 h 8.33437 8.33438 v 23.790463 23.79046 l 1.65364,0.785381 c 2.98157,1.416061 5.22446,2.433696 5.36393,2.433696 0.16548,0 7.63848,3.305275 8.63879,3.820898 0.38907,0.200551 0.77603,0.296018 0.8599,0.212148 0.0839,-0.08387 0.15249,-12.457311 0.15249,-27.496537 v -27.344047 l 8.26823,0.06991 8.26821,0.06992 0.067,38.298438 c 0.0535,30.559224 3e-5,38.2954107 -0.26458,38.2834648 -0.1824,-0.00823 -1.28789,-0.4647089 -2.45667,-1.0143887 z M 22.602896,-8.8934483 c -1.93516,-1.4228707 -5.14787,-3.7094987 -5.59552,-3.9825717 -0.23854,-0.145521 -1.56845,-1.098021 -2.95534,-2.116667 -1.38689,-1.018646 -2.77878,-1.988283 -3.09308,-2.154748 -0.31433,-0.166465 -1.5382099,-1.029669 -2.7197899,-1.918229 -1.18157,-0.888561 -2.21321,-1.615565 -2.29253,-1.615565 -0.0793,0 -0.99854,-0.631065 -2.04272,-1.402365 -1.04418,-0.771301 -2.58313,-1.862654 -3.41986995,-2.425229 l -1.52135005,-1.022864 v -18.344562 -18.344563 h 6.2177 6.2177099 v 15.610951 15.610954 l 2.48788,1.845522 c 3.06088,2.270588 3.53777,2.503548 4.39878,2.14881 0.3597,-0.148185 1.72553,-1.080471 3.03522,-2.071748 l 2.38125,-1.80232 0.0682,-15.671083 0.0683,-15.671086 h 6.21559 6.21562 v 18.326465 18.326465 l -2.05053,1.40598 c -1.12778,0.773287 -2.94348,2.048592 -4.03489,2.834008 -1.09141,0.785418 -2.96386,2.094796 -4.16102,2.909729 l -2.17665,1.481698 -0.0723,4.425297 -0.0723,4.4252962 z M -171.82585,-23.060396 c -0.29104,-0.12468 -1.95791,-0.778434 -3.70416,-1.452788 -1.74625,-0.674357 -3.49102,-1.397725 -3.87729,-1.607489 -0.38626,-0.209764 -0.8401,-0.381389 -1.00856,-0.381389 -0.16846,0 -0.924,-0.285509 -1.67897,-0.634466 -0.75499,-0.348958 -2.14659,-0.901242 -3.09247,-1.227301 -0.94589,-0.326057 -1.95464,-0.754922 -2.24169,-0.953032 -0.28704,-0.198112 -0.67974,-0.360201 -0.87267,-0.360201 -0.19293,0 -0.85106,-0.245517 -1.46248,-0.545592 -0.61143,-0.300077 -2.0015,-0.847728 -3.08901,-1.217001 -1.08752,-0.369274 -2.21533,-0.838132 -2.50627,-1.041908 -0.29094,-0.203774 -0.703,-0.370499 -0.91572,-0.370499 -0.21273,0 -0.87083,-0.226737 -1.46249,-0.503859 -0.59163,-0.277122 -1.84962,-0.768416 -2.79551,-1.091761 -0.94588,-0.323347 -1.83885,-0.681789 -1.98437,-0.796541 -0.14552,-0.114753 -1.03849,-0.4727 -1.98438,-0.795436 -0.94588,-0.322739 -1.83885,-0.668925 -1.98437,-0.769302 -0.26305,-0.181457 -3.12234,-1.34039 -7.67292,-3.110008 -1.30968,-0.50931 -2.97656,-1.195197 -3.70416,-1.524196 -0.72761,-0.328999 -1.65034,-0.675984 -2.05052,-0.77108 l -0.72761,-0.172898 v -20.764751 -20.764751 h 24.87308 24.87311 l -0.0684,14.485937 -0.0684,14.485938 h -8.20208 -8.20208 l -0.0705,-7.077604 -0.0705,-7.077605 h -8.33004 -8.33006 l 0.006,8.665105 0.006,8.665104 2.838,1.148865 c 1.56091,0.631878 3.06562,1.269998 3.34383,1.418045 0.27821,0.148048 1.15824,0.493631 1.95559,0.767962 0.79734,0.27433 1.58176,0.598368 1.74312,0.720082 0.16135,0.121716 1.06728,0.485216 2.01317,0.80778 0.94588,0.322565 2.01744,0.744038 2.38125,0.936607 0.3638,0.192566 1.1377,0.502592 1.71979,0.688946 0.58208,0.186351 1.29646,0.491934 1.5875,0.679071 0.29104,0.187135 1.12448,0.53662 1.85208,0.776629 0.7276,0.240012 1.94061,0.723691 2.6956,1.074844 0.75496,0.351152 1.53215,0.63846 1.72707,0.63846 0.19489,0 0.58923,0.164079 0.87627,0.36462 0.28705,0.200541 1.08405,0.555165 1.77112,0.788051 1.48778,0.504288 5.09495,1.930418 6.02682,2.382755 l 0.66145,0.321083 0.0701,7.729037 c 0.0386,4.250971 -0.0209,7.720978 -0.13229,7.711131 -0.11133,-0.0098 -0.44055,-0.119917 -0.7316,-0.244594 z m 7.07475,-27.447719 0.069,-11.315822 h 18.52084 18.52083 v 8.069792 8.069791 h -6.08542 -6.08541 l -0.1323,-2.645833 -0.13229,-2.645833 -6.14648,-0.07101 -6.14648,-0.07101 -0.0712,5.891845 -0.0712,5.891842 -6.15442,0.07103 -6.1544,0.07103 z m 84.603379,-6.024155 v -5.423959 h 16.139582 16.139583 v 5.423959 5.423958 h -16.139583 -16.139582 z"
       id="path4336" /></g></svg>
