<?xml version="1.0" encoding="UTF-8" standalone="no"?>
<!-- Created with Inkscape (http://www.inkscape.org/) -->

<svg
   width="501.10394mm"
   height="151.33524mm"
   viewBox="0 0 501.10394 151.33524"
   version="1.1"
   id="svg5"
   xml:space="preserve"
   sodipodi:docname="white_crest_with_text.svg"
   inkscape:version="1.2.2 (732a01da63, 2022-12-09)"
   xmlns:inkscape="http://www.inkscape.org/namespaces/inkscape"
   xmlns:sodipodi="http://sodipodi.sourceforge.net/DTD/sodipodi-0.dtd"
   xmlns="http://www.w3.org/2000/svg"
   xmlns:svg="http://www.w3.org/2000/svg"><sodipodi:namedview
     id="namedview7"
     pagecolor="#505050"
     bordercolor="#eeeeee"
     borderopacity="1"
     inkscape:showpageshadow="0"
     inkscape:pageopacity="0"
     inkscape:pagecheckerboard="0"
     inkscape:deskcolor="#505050"
     inkscape:document-units="mm"
     showgrid="false"
     inkscape:zoom="0.5946522"
     inkscape:cx="979.56419"
     inkscape:cy="88.286901"
     inkscape:window-width="1920"
     inkscape:window-height="1009"
     inkscape:window-x="1072"
     inkscape:window-y="433"
     inkscape:window-maximized="1"
     inkscape:current-layer="layer1" /><defs
     id="defs2" /><g
     inkscape:label="Layer 1"
     inkscape:groupmode="layer"
     id="layer1"
     transform="translate(464.83499,115.66485)"><path
       style="fill:#ffffff;stroke-width:0.264583;fill-opacity:1"
       d="m -405.40625,34.612008 c -0.99298,-0.579509 -1.88595,-1.056918 -1.98437,-1.060908 -0.45008,-0.01826 -8.58166,-5.469276 -8.73381,-5.854737 -0.0485,-0.122883 -0.21787,-0.223425 -0.37635,-0.223425 -0.15849,0 -0.9726,-0.595313 -1.80915,-1.322917 -0.83654,-0.727604 -1.57801,-1.322916 -1.64771,-1.322916 -0.0697,0 -0.5376,-0.386953 -1.03978,-0.859896 -0.50217,-0.472943 -2.13141,-1.989759 -3.62053,-3.370705 -2.3241,-2.155274 -3.79692,-3.722385 -7.83551,-8.337108 -0.38206,-0.436562 -1.54687,-1.924843 -2.58845,-3.3072907 -1.04159,-1.382448 -1.95485,-2.5730734 -2.02946,-2.6458338 -0.37315,-0.3638735 -3.96799,-5.85990168 -3.96799,-6.06651478 0,-0.1316646 -0.0954,-0.2790746 -0.21191,-0.3275833 -0.11655,-0.048506 -0.54958,-0.683506 -0.96229,-1.41111022 -0.4127,-0.7276042 -0.92171,-1.6205729 -1.13111,-1.984375 -1.34464,-2.3360301 -2.0771,-3.7182107 -3.7156,-7.0114582 -2.2673,-4.557078 -3.50409,-7.173146 -3.50409,-7.411853 0,-0.0996 -0.17469,-0.556273 -0.3882,-1.014828 -1.01736,-2.185032 -2.16966,-5.219022 -3.68298,-9.697278 -0.90974,-2.692135 -1.79465,-5.154856 -1.96645,-5.47271 -0.17181,-0.317855 -0.31237,-0.804206 -0.31237,-1.080781 0,-0.276574 -0.22076,-1.207137 -0.49057,-2.067914 -2.75594,-8.792216 -6.67844,-29.203835 -6.65892,-34.651199 0.003,-0.880401 -0.0981,-1.713838 -0.22508,-1.852083 -0.12695,-0.138245 -0.30174,-2.1706 -0.38844,-4.516345 l -0.15762,-4.264991 2.57125,-0.728768 c 4.76436,-1.350359 13.67532,-4.268065 15.80042,-5.173509 0.29104,-0.124005 1.06495,-0.400003 1.71979,-0.613328 0.65484,-0.213326 1.54781,-0.575778 1.98437,-0.805447 0.43657,-0.229669 0.87952,-0.418315 0.98435,-0.419212 0.10483,-7.93e-4 0.84134,-0.299286 1.63669,-0.663088 0.79535,-0.363802 1.5352,-0.661458 1.6441,-0.661458 0.22907,0 1.92726,-0.750397 4.20153,-1.856576 0.87312,-0.424677 2.54,-1.22004 3.70417,-1.767472 1.16416,-0.547432 2.17619,-1.073254 2.24895,-1.168495 0.0728,-0.09524 0.72761,-0.460798 1.45521,-0.81235 1.58068,-0.763725 4.97278,-2.636627 5.15938,-2.848685 0.26961,-0.30638 2.3782,-1.60059 2.60776,-1.60059 0.13082,0 0.39637,-0.19099 0.59011,-0.42443 0.19374,-0.23345 0.59527,-0.51858 0.89229,-0.63363 2.00896,-0.77817 11.59387,-9.37901 13.38864,-12.01405 0.35484,-0.52096 0.77208,-0.94801 0.9272,-0.94901 0.29478,-0.002 1.96691,1.76792 1.96691,2.08181 0,0.29616 7.2513,7.1768 7.56342,7.1768 0.0853,0 0.53178,0.35113 0.99218,0.78028 0.84912,0.79148 2.8266,2.20455 5.46732,3.90687 0.80036,0.51595 2.0707,1.33929 2.82296,1.829641 0.75227,0.490355 1.42161,0.891554 1.48744,0.891554 0.0658,0 1.23972,0.634307 2.60867,1.409572 2.24355,1.270574 4.32139,2.308778 8.69135,4.342675 0.80036,0.372512 1.88813,0.897523 2.41727,1.16669 0.52914,0.269168 1.0917,0.489396 1.25014,0.489396 0.15845,0 1.06795,0.357188 2.02113,0.79375 0.95317,0.436563 1.90865,0.79375 2.12329,0.79375 0.21464,0 0.39025,0.113668 0.39025,0.252595 0,0.138925 0.41803,0.331018 0.92896,0.426868 0.51093,0.09585 0.99421,0.279839 1.07395,0.408864 0.0797,0.129024 0.4118,0.23459 0.73791,0.23459 0.32611,0 0.70604,0.104428 0.84428,0.23206 0.13825,0.127633 0.9062,0.439926 1.70656,0.693981 0.80037,0.254056 1.56832,0.566349 1.70657,0.693981 0.13824,0.127633 0.42727,0.232061 0.64228,0.232061 0.215,0 1.35205,0.340746 2.52677,0.757214 1.93707,0.686744 3.94426,1.300191 9.61032,2.93716 l 1.91823,0.554191 0.002,1.646029 c 0.003,2.386065 -0.50851,9.118473 -0.94886,12.493948 -0.20882,1.600729 -0.37885,3.416432 -0.37782,4.034896 0.001,0.618463 -0.11721,1.124479 -0.26274,1.124479 -0.14552,0 -0.26704,0.565547 -0.27005,1.256771 -0.003,0.691223 -0.30609,2.68552 -0.67352,4.43177 -0.36743,1.74625 -0.77585,3.889375 -0.90759,4.7625 -0.26513,1.757212 -0.75381,3.955066 -1.76484,7.9375 -0.36944,1.455209 -0.73438,3.062552 -0.81098,3.571875 -0.0766,0.509323 -0.21408,0.985573 -0.30551,1.058334 -0.0914,0.07276 -0.38407,1.02526 -0.6503,2.116666 -0.96786,3.967644 -4.34514,13.720956 -6.2977,18.187221 -0.26969,0.616878 -0.49034,1.194196 -0.49034,1.28293 0,0.232516 -0.62261,1.595339 -2.68022,5.866688 -0.99967,2.075313 -1.81763,3.8162682 -1.81763,3.868788 0,0.097822 -3.37889,6.0652316 -4.51187,7.96833182 -0.34653,0.5820834 -0.72327,1.0980209 -0.83721,1.146527 -0.11394,0.048509 -0.20717,0.2073222 -0.20717,0.3529197 0,0.56628508 -6.92028,10.22191448 -8.67735,12.10722248 -0.39345,0.422158 -1.84645,1.998202 -3.2289,3.502321 -1.38245,1.504116 -3.80515,3.925385 -5.38379,5.380593 -1.57864,1.455208 -3.06692,2.839609 -3.30729,3.076448 -1.35679,1.336831 -8.99518,6.741099 -10.49145,7.422846 -0.36367,0.165698 -0.66122,0.393197 -0.66122,0.505555 0,0.112355 -0.26789,0.286803 -0.59531,0.387662 -0.32742,0.100857 -1.07156,0.499859 -1.65364,0.886669 -1.09521,0.72779 -3.41398,1.879566 -3.76743,1.871348 -0.11073,-0.0026 -1.01376,-0.478825 -2.00675,-1.058333 z m 3.28613,-3.877197 c 0.4953,-0.243263 0.96008,-0.511344 1.03284,-0.595736 0.0728,-0.08439 0.48948,-0.330131 0.92604,-0.546089 0.75126,-0.371631 1.03396,-0.543327 2.8837,-1.751391 3.64247,-2.37889 6.10196,-4.253611 9.41942,-7.179852 3.88793,-3.429434 9.02479,-8.713031 11.18301,-11.5024427 0.25705,-0.33224 0.89364,-1.135121 1.41463,-1.784184 0.52098,-0.6490648 1.31484,-1.7206273 1.76411,-2.3812495 0.44928,-0.6606249 0.88905,-1.2606682 0.97727,-1.3334286 0.64051,-0.528283 5.30961,-8.0358747 6.71876,-10.8033185 0.27183,-0.5338524 0.56949,-1.0301711 0.66146,-1.1029315 0.26658,-0.2108967 3.6771,-7.2240512 5.59705,-11.5093752 0.82702,-1.845913 2.57498,-6.277965 3.28699,-8.334375 1.99586,-5.764406 3.58904,-10.789259 3.58737,-11.314528 -5.3e-4,-0.183875 0.10509,-0.541062 0.23483,-0.79375 0.72058,-1.403403 4.00168,-15.825036 3.99867,-17.575585 -8e-4,-0.391594 0.11783,-0.785575 0.26335,-0.875512 0.14552,-0.08994 0.26458,-0.500843 0.26458,-0.913122 0,-0.412279 0.34594,-2.875801 0.76874,-5.474489 0.42281,-2.598689 0.84776,-5.915514 0.94432,-7.370722 0.0966,-1.455209 0.28642,-2.758943 0.42189,-2.897188 0.13547,-0.138245 0.2463,-1.151533 0.2463,-2.251752 v -2.000401 l -2.84427,-0.863624 c -4.41225,-1.33972 -8.15429,-2.568408 -11.04635,-3.627035 -1.45521,-0.532673 -3.06255,-1.091856 -3.57187,-1.242632 -0.50933,-0.150772 -1.46183,-0.543644 -2.11667,-0.873045 -0.65485,-0.329404 -1.57758,-0.682578 -2.05052,-0.784828 -0.47294,-0.102254 -0.8599,-0.295519 -0.8599,-0.429477 0,-0.133956 -0.17827,-0.24356 -0.39617,-0.24356 -0.21789,0 -1.20015,-0.366501 -2.18281,-0.814448 -0.98265,-0.447945 -2.44149,-1.113288 -3.24185,-1.478534 -0.80037,-0.36525 -1.6338,-0.772938 -1.85208,-0.905976 -0.21829,-0.133038 -0.65057,-0.352322 -0.96064,-0.487296 -2.15286,-0.937148 -5.82213,-2.83193 -6.18311,-3.192913 -0.0728,-0.07276 -0.60855,-0.363657 -1.19063,-0.646438 -0.58208,-0.28278 -1.43734,-0.788796 -1.90058,-1.124479 -0.46323,-0.335683 -0.89529,-0.610333 -0.96013,-0.610333 -0.11821,0 -2.26663,-1.294355 -3.75413,-2.261746 -0.97961,-0.63709 -5.70219,-4.146585 -6.66452,-4.952605 -0.72221,-0.60491 -2.17706,-1.96766 -4.56473,-4.27576 l -1.34858,-1.30364 -0.85471,0.82434 c -0.47008,0.45339 -1.63508,1.57581 -2.58888,2.49427 -0.95379,0.91846 -2.67867,2.3843 -3.83306,3.25744 -1.15438,0.87312 -2.33122,1.79585 -2.61519,2.05051 -0.28397,0.25467 -0.67619,0.46303 -0.8716,0.46303 -0.19541,0 -0.41807,0.1636 -0.4948,0.36357 -0.0767,0.19996 -0.54925,0.584226 -1.05003,0.853915 -0.50078,0.269689 -0.91052,0.582331 -0.91052,0.69476 0,0.112429 -0.10666,0.204416 -0.23702,0.204416 -0.13037,0 -1.37498,0.715212 -2.7658,1.58936 -1.39082,0.874148 -2.8022,1.710531 -3.13641,1.858629 -0.3342,0.148098 -1.20295,0.607153 -1.93056,1.020121 -1.82529,1.035984 -7.02265,3.61789 -7.74305,3.846538 -0.32523,0.103225 -0.59132,0.279871 -0.59132,0.392552 0,0.11268 -0.50602,0.351832 -1.12448,0.53145 -0.61846,0.179617 -1.60073,0.54542 -2.18281,0.812892 -2.12299,0.975535 -3.54602,1.590125 -3.68181,1.590125 -0.0764,0 -0.8256,0.314074 -1.66482,0.697939 -0.83922,0.383866 -1.82501,0.792477 -2.19065,0.908024 -0.36564,0.115546 -2.21262,0.762034 -4.10439,1.43664 -1.89177,0.674605 -3.97536,1.387437 -4.63021,1.584071 -1.29882,0.390001 -4.5258,1.389147 -6.97794,2.160524 l -1.55399,0.488844 0.168,2.248958 c 0.21606,2.892396 1.11003,10.224995 1.66126,13.626042 0.23585,1.455208 0.50769,3.300677 0.60408,4.101041 0.2285,1.897256 1.36757,7.258079 2.81095,13.229167 0.19347,0.800365 0.47853,1.99099 0.63346,2.645833 0.62809,2.654729 3.54942,12.167569 4.00056,13.027139 0.13262,0.252688 0.24112,0.641255 0.24112,0.863486 0,0.222232 0.11259,0.610799 0.2502,0.863487 0.1376,0.252687 0.62081,1.471461 1.07379,2.708388 0.45299,1.236927 0.99524,2.62414 1.20502,3.082695 0.20977,0.458555 0.38141,0.954789 0.38141,1.102741 0,0.147953 0.29766,0.861624 0.66146,1.585939 0.3638,0.724313 0.66146,1.508001 0.66146,1.74153 0,0.233526 0.10288,0.424595 0.22863,0.424595 0.12575,0 0.44123,0.565547 0.70106,1.256771 1.26509,3.36546 6.58905,13.1831692 9.30074,17.15113082 2.6029,3.80875908 3.51929,5.09361008 3.9155,5.48982098 0.22338,0.2233798 0.40615,0.5047404 0.40615,0.6252422 0,0.1205018 0.53391,0.8136173 1.18647,1.5402533 0.65256,0.726636 1.18835,1.411655 1.19063,1.522264 0.0143,0.690828 9.93394,10.7593057 12.49908,12.6865617 0.33107,0.24874 1.24967,0.992881 2.04134,1.653646 0.79166,0.660768 1.5273,1.201394 1.63474,1.201394 0.10745,0 0.35913,0.163777 0.55931,0.36395 0.43465,0.434657 5.60975,3.908335 6.55301,4.398571 0.3638,0.189079 0.72099,0.415472 0.79375,0.503094 0.1913,0.230381 1.93237,1.047507 2.27445,1.067465 0.15955,0.0093 0.69533,-0.182113 1.19063,-0.425374 z m -1.92483,-0.696989 c -0.19229,-0.190045 -0.57127,-0.429532 -0.84217,-0.532193 -0.66653,-0.252595 -6.5583,-4.089189 -7.81891,-5.091505 -0.23088,-0.183581 -1.43183,-1.132377 -2.66875,-2.10843 -2.92911,-2.311349 -2.69985,-2.101093 -7.14375,-6.551734 -3.87234,-3.878209 -5.1403,-5.261007 -7.14679,-7.7940427 l -1.10031,-1.3890624 h 8.88605 8.88605 v 8.4666661 8.466667 h 9.525 9.525 v -9.260417 c 0,-5.4179567 0.10036,-9.2604161 0.24188,-9.2604161 0.30888,0 4.61761,1.6419803 6.19819,2.3620174 0.66209,0.30162 1.36512,0.548399 1.56229,0.548399 0.19716,0 0.47158,0.104429 0.60982,0.232061 0.13825,0.127632 0.87504,0.434393 1.63731,0.681688 0.76227,0.247296 1.44381,0.543254 1.51454,0.657688 0.0707,0.114433 0.66517,0.358294 1.321,0.5419147 0.65582,0.183621 1.31587,0.482616 1.46677,0.664437 0.366,0.44101 -7.41527,8.326107 -10.71535,10.858318 -1.30968,1.004945 -2.44078,1.893975 -2.51354,1.97562 -0.0728,0.08164 -0.78713,0.618723 -1.5875,1.193509 -0.80036,0.574786 -1.49489,1.136404 -1.5434,1.248039 -0.0485,0.111636 -0.19841,0.202975 -0.33312,0.202975 -0.13471,0 -1.22612,0.632614 -2.42535,1.405806 -2.76994,1.785897 -4.58264,2.827528 -4.92061,2.827528 -0.1456,0 -0.42205,-0.155491 -0.61435,-0.345533 z m 25.82862,-21.7456327 c -0.42804,-0.194363 -1.61168,-0.667444 -2.63033,-1.051285 -1.01864,-0.3838417 -2.14974,-0.8266219 -2.51354,-0.9839564 -0.96669,-0.4180655 -1.21059,-0.5155142 -7.14375,-2.8542562 -2.98318,-1.1759142 -5.66208,-2.2422141 -5.95313,-2.3695528 -0.29104,-0.12734128 -1.24354,-0.49870518 -2.11666,-0.82525388 -0.87313,-0.3265488 -1.94469,-0.7421642 -2.38125,-0.923589 -3.27461,-1.36085262 -5.51212,-2.23844112 -5.70715,-2.23844112 -0.12666,0 -0.8589,-0.2824507 -1.6272,-0.6276684 -1.33684,-0.6006809 -2.59709,-1.1050191 -6.68857,-2.6766838 -1.01864,-0.3912949 -2.20927,-0.8670634 -2.64583,-1.0572644 -0.68107,-0.2967249 -2.18079,-0.9076214 -4.23333,-1.724406 -0.29105,-0.1158161 -0.94589,-0.3602329 -1.45521,-0.5431499 -0.50933,-0.1829197 -1.55465,-0.6116534 -2.32295,-0.9527434 -0.76829,-0.341093 -1.51405,-0.620167 -1.65723,-0.620167 -0.14319,0 -0.46708,-0.105172 -0.71977,-0.233715 -0.71225,-0.362326 -1.66221,-0.764831 -3.10526,-1.315728 l -1.32292,-0.505034 -0.0675,-24.240471 -0.0675,-24.240469 h 29.23784 29.23785 v 17.065625 17.065625 h -9.92188 -9.92187 v -8.598959 -8.598958 h -9.525 -9.525 v 10.282804 10.282803 l 1.25677,0.466352 c 0.69122,0.256495 1.61396,0.622697 2.05052,0.813782 0.43656,0.191087 2.2225,0.903679 3.96875,1.583537 1.74625,0.679857 3.65125,1.449863 4.23333,1.711123 0.58209,0.261258 1.71318,0.714492 2.51354,1.007185 1.35307,0.494815 18.00574,7.175762 19.18229,7.695811 1.21952,0.539041 2.47862,1.0514354 4.0349,1.6420119 l 1.65365,0.6275228 v 6.6820759 c 0,4.2783284 -0.0952,6.6820759 -0.26459,6.6820759 -0.14552,0 -0.26458,0.125521 -0.26458,0.2789317 0,0.1534134 -0.35664,0.659429 -0.79253,1.1244792 -0.43589,0.4650528 -0.79513,0.9646099 -0.79832,1.1101309 -0.003,0.145521 -0.2786,0.523036 -0.61204,0.838925 -0.54869,0.519814 -0.68013,0.54079 -1.38449,0.220951 z m -62.08881,-16.4567026 c -0.17962,-0.4085166 -0.40376,-0.8022881 -0.49809,-0.8750485 -0.26326,-0.2030598 -4.61793,-9.2518942 -5.02947,-10.4510422 -0.19977,-0.582083 -0.4359,-1.117864 -0.52472,-1.190625 -0.0888,-0.07276 -0.30045,-0.558747 -0.47027,-1.079968 -0.16981,-0.521224 -0.54425,-1.409602 -0.83209,-1.974173 -0.28783,-0.564573 -0.52333,-1.19131 -0.52333,-1.39275 0,-0.201441 -0.16209,-0.682281 -0.3602,-1.068536 -0.1981,-0.386255 -0.50055,-1.119 -0.6721,-1.628323 -1.05257,-3.124993 -2.70717,-8.181652 -3.42416,-10.464622 l -0.83521,-2.659415 v -14.207773 c 0,-7.814275 0.0444,-14.207773 0.0987,-14.207773 0.14794,0 2.35606,0.979382 5.3253,2.361962 1.45521,0.677598 5.29035,2.417651 8.52254,3.866787 l 5.87671,2.634793 0.0103,7.606771 c 0.006,4.183723 -0.0375,7.60677 -0.0958,7.60677 -0.0584,0 -0.92156,-0.34789 -1.91823,-0.773088 l -1.81212,-0.773092 -0.13229,19.624654 -0.13229,19.6246515 -1.12325,0.081299 c -1.01174,0.073229 -1.15567,0.00757 -1.44982,-0.6614584 z m 71.40883,0.5360617 c -0.26887,-0.2688669 -0.20232,-13.1313004 0.0702,-13.5618384 0.19933,-0.314957 0.51336,-0.255114 1.91417,0.364776 0.92165,0.40785 2.15198,0.952019 2.73406,1.20926 0.58208,0.257241 1.49755,0.649528 2.03438,0.871746 l 0.97604,0.404037 -0.72305,1.673892 c -0.39767,0.920642 -1.19272,2.566861 -1.76678,3.658267 -0.57405,1.091406 -1.10544,2.162969 -1.18085,2.38125 -0.27733,0.8026772 -1.40401,2.7839249 -1.69039,2.9725119 -0.37009,0.2437157 -2.13073,0.2631229 -2.36775,0.026088 z m 7.36423,-13.4618364 c -0.43656,-0.206367 -2.46062,-1.097841 -4.49791,-1.981049 -2.03729,-0.883208 -4.06136,-1.768533 -4.49792,-1.967391 -0.43656,-0.198856 -1.29977,-0.562854 -1.91823,-0.808882 -1.12068,-0.445815 -1.36208,-0.740958 -0.85989,-1.051327 0.16446,-0.101648 0.26458,-2.560386 0.26458,-6.497907 0,-3.483912 0.0967,-6.334385 0.21489,-6.334385 0.11818,0 0.71513,0.241692 1.32654,0.537094 0.61141,0.295405 1.40768,0.649645 1.76949,0.787201 l 0.65783,0.250108 v -24.158728 c 0,-13.287301 0.0619,-24.220646 0.13759,-24.29632 0.11876,-0.118755 4.27884,1.428409 5.81553,2.162839 0.29105,0.139097 1.47506,0.572987 2.63114,0.964198 1.15609,0.391213 2.40625,0.870082 2.77813,1.064156 0.37188,0.194072 0.84252,0.353592 1.04586,0.354489 0.20334,7.94e-4 1.06654,0.255709 1.91823,0.566248 l 1.54852,0.564618 v 20.252547 c 0,22.74216 0.2333,19.645726 -2.01714,26.772384 -2.23028,7.062814 -4.69041,13.247872 -5.25522,13.212246 -0.14755,-0.0093 -0.62545,-0.185769 -1.06202,-0.392139 z m -47.75729,-13.434261 -2.51354,-1.133491 -0.073,-4.02097 -0.073,-4.020969 h 2.78501 2.78502 v 5.159375 c 0,2.837657 -0.0893,5.157163 -0.19844,5.154462 -0.10914,-0.0027 -1.32953,-0.514985 -2.71198,-1.138407 z m 11.77396,-2.258774 c -1.16416,-0.53303 -2.26549,-1.064205 -2.44739,-1.180391 -0.22998,-0.146891 -0.33073,-1.052798 -0.33073,-2.973755 v -2.76251 h 2.77812 2.77813 v 3.96875 c 0,3.012398 -0.0797,3.962522 -0.33073,3.942901 -0.1819,-0.01421 -1.28323,-0.461963 -2.4474,-0.994995 z m -24.73854,-32.448947 v -6.482292 h -7.67292 -7.67291 v 5.55625 c 0,3.055938 -0.051,5.55625 -0.11327,5.55625 -0.0623,0 -2.53285,-1.132885 -5.49011,-2.517521 -2.95726,-1.384636 -6.47284,-3.021745 -7.81242,-3.638021 l -2.43559,-1.1205 -0.0118,-4.515744 -0.0118,-4.515744 1.52135,-0.474843 c 2.49212,-0.777835 8.95425,-3.156852 11.57552,-4.261495 0.43657,-0.183976 1.86532,-0.773092 3.175,-1.309153 1.30969,-0.536059 3.15516,-1.35163 4.10104,-1.812378 l 1.7198,-0.837726 12.50156,-0.07362 12.50156,-0.07362 v 13.501225 13.501224 h -7.9375 -7.9375 z m 21.96042,-7.011459 v -13.49375 h 7.9375 7.9375 v 13.49375 13.49375 h -7.9375 -7.9375 z m 65.79305,79.7277774 c -0.20179,-0.2017844 -0.24589,-65.7048604 -0.0442,-65.7048604 0.0727,0 0.69777,0.289428 1.38907,0.64317 0.6913,0.353746 3.40003,1.621015 6.01941,2.816154 5.80023,2.646466 7.34312,3.354022 9.99382,4.583059 1.13098,0.524399 2.11293,0.95345 2.18211,0.95345 0.0692,0 0.87023,0.339993 1.78013,0.755542 0.90989,0.415547 2.84498,1.263033 4.30018,1.883301 1.45521,0.620271 2.87264,1.245302 3.14983,1.388957 0.2772,0.143658 1.319,0.592863 2.31511,0.998231 l 1.81111,0.737036 v -10.819032 -10.819035 h -8.33438 -8.33437 v 5.956443 5.956446 l -1.05308,-0.664779 c -0.57919,-0.365625 -1.17003,-0.664776 -1.31297,-0.664776 -0.14294,0 -1.42523,-0.552792 -2.84953,-1.228426 -1.4243,-0.675635 -3.95885,-1.868909 -5.63234,-2.651723 -1.67349,-0.782815 -3.57849,-1.688539 -4.23333,-2.012723 l -1.19063,-0.58942 -0.0695,-9.458854 -0.0695,-9.458854 h 24.87417 24.87417 v 29.897916 c 0,20.022836 -0.0886,29.897917 -0.26817,29.897917 -0.26869,0 -5.80232,-2.367254 -8.38027,-3.585033 -0.75483,-0.356565 -1.43912,-0.6483 -1.52065,-0.6483 -0.15976,0 -2.89607,-1.230226 -5.04824,-2.269657 -0.7297,-0.352417 -1.41202,-0.64076 -1.51627,-0.64076 -0.10426,0 -1.20617,-0.47625 -2.44869,-1.058333 -1.24252,-0.582084 -2.34425,-1.058334 -2.44828,-1.058334 -0.10404,0 -0.84589,-0.31551 -1.64856,-0.701132 -1.78162,-0.855935 -2.71754,-1.274559 -6.61878,-2.960476 -2.1336,-0.922033 -3.10079,-1.223645 -3.2371,-1.009462 -0.10691,0.167994 -0.19621,9.622086 -0.19843,21.009091 l -0.004,20.7036462 h -8.0257 c -4.41413,0 -8.10507,-0.079375 -8.20208,-0.1763898 z m 89.6975,0.00376 c -0.0991,-0.099081 -0.18014,-3.487856476378 -0.18014,-7.5306184 v -7.350472 l 0.85989,0.289209 c 0.47294,0.159064 0.97896,0.379169 1.12448,0.489116 0.14552,0.10995 1.51474,0.7562931 3.04271,1.4363199 3.12263,1.3897345 3.2982,1.4672442 8.06978,3.5626384 l 3.43958,1.5104559 v 3.81684482 3.81684738 l -8.08807,0.0699 c -4.44845,0.038447 -8.16915,-0.011165 -8.26823,-0.1102439 z m 24.16151,-14.3780934 v -14.553441 h 8.20208 8.20209 v 7.14375 7.14375 h 8.33437 8.33438 v -7.805208 c 0,-8.830119 -0.15746,-8.310822 2.16611,-7.14375 0.72433,0.363802 1.43198,0.661458 1.57258,0.661458 0.14057,0 0.75589,0.247452 1.36732,0.549892 0.61142,0.30244 1.76654,0.769363 2.5669,1.037608 0.80037,0.268246 1.95549,0.735169 2.56691,1.037609 0.61143,0.30244 1.2378,0.549891 1.39195,0.549891 0.15414,0 0.78496,0.228222 1.40184,0.507162 0.61688,0.278939 1.68836,0.749038 2.38109,1.044665 l 1.25952,0.537503 -0.0689,11.8537729 -0.0689,11.8537725 -24.80468,0.067503 -24.80469,0.067501 z m 56.00525,14.3761223 c -0.098,-0.097996 -0.17817,-9.4452043 -0.17817,-20.7715773 v -20.593402 h 16.66875 16.66875 v 5.423958 5.423958 h -10.45104 -10.45104 v 9.926752 9.926751 l 6.15156,-0.071022 6.15156,-0.071022 0.0709,-6.416146 c 0.039,-3.52888 0.0985,-6.415739 0.13229,-6.415238 0.12864,0.0019 3.83955,1.543266 4.31993,1.794338 0.27721,0.144875 1.81369,0.820827 3.41442,1.502116 1.60073,0.681289 3.29888,1.436603 3.77368,1.678479 l 0.86325,0.439778 -0.0695,9.1322948 -0.0695,9.1322948 -18.40881,0.067932 c -10.12483,0.037362 -18.48898,-0.01225 -18.58698,-0.1102439 z m 42.95828,-29.7845823 c 0.007,-23.642606 0.0772,-29.851086 0.33073,-29.410644 0.17674,0.307062 2.97116,3.39477 6.2098,6.861574 l 5.8884,6.303277 -0.0676,23.036345 -0.0676,23.0363424 -6.15156,0.071022 -6.15157,0.071022 0.009,-29.9689384 z m 25.307293,29.7876382 c -0.0997,-0.099677 -0.18124,-7.9132298 -0.18124,-17.3634502 v -17.182225 l -2.8875,-3.345035 c -1.588143,-1.839769 -3.374083,-3.824128 -3.968753,-4.409683 -0.59468,-0.585557 -1.08125,-1.158076 -1.08125,-1.272267 0,-0.208257 -4.13105,-4.872586 -5.19462,-5.86517 -0.31184,-0.291042 -2.12778,-2.255573 -4.03542,-4.365625 -1.90765,-2.110052 -4.18873,-4.610365 -5.0691,-5.55625 -2.74802,-2.952559 -2.89878,-3.205927 -2.89878,-4.871717 v -1.488036 l 6.13992,0.07102 6.13995,0.07102 4.18235,4.7625 c 2.30031,2.619375 4.47844,5.070078 4.84029,5.446006 0.36184,0.37593 0.657913,0.770858 0.657913,0.87762 0,0.277328 2.72227,3.333665 2.96929,3.333665 0.11313,0 0.20571,-3.274218 0.20571,-7.276041 v -7.276042 h 6.21874 6.21874 l -0.06718,32.874479 -0.06718,32.8744795 -5.970323,0.070988 c -3.28369,0.039045 -6.051887,-0.010557 -6.151557,-0.1102439 z m 26.13636,-0.1541965 c -0.07038,-0.1846421 -0.09726,-12.1824327 -0.05977,-26.6617557 l 0.06821,-26.326042 h 6.085417 6.085416 v 26.590625 26.5906254 l -6.025674,0.071131 c -4.677092,0.055211 -6.054275,-0.004 -6.153599,-0.2645837 z m 26.51572,0.1541965 c -0.09969,-0.099677 -0.181239,-5.4596665 -0.181239,-11.9110919 0,-9.2067563 0.07115,-11.7301593 0.330729,-11.7312543 0.2735,-0.0011 4.826767,1.899398 8.003643,3.340761 0.43657,0.198072 1.50813,0.636413 2.38125,0.974093 l 1.5875,0.613963 v 9.3763913 9.3763941 l -5.970321,0.070988 c -3.28369,0.039045 -6.051893,-0.010557 -6.151562,-0.1102442 z m 24.865993,-0.00484 c -0.097,-0.097012 -0.1764,-3.54708088 -0.1764,-7.6668153 0,-8.7093289 0.47003,-7.5637679 -3.83646,-9.3501179 -1.45521,-0.603626 -3.24114,-1.372294 -3.96875,-1.70815 -0.7276,-0.335857 -2.39448,-1.057784 -3.70416,-1.604278 -1.30969,-0.546494 -2.73844,-1.152218 -3.175,-1.346052 -0.43657,-0.193831 -2.16297,-0.910166 -3.836463,-1.591852 -1.673489,-0.681686 -3.631644,-1.519798 -4.351416,-1.862471 -0.719799,-0.342672 -1.464707,-0.623041 -1.655339,-0.623041 -0.283263,0 -0.334222,-3.614105 -0.278792,-19.777604 l 0.06784,-19.777604 h 18.52083 18.5208401 l 0.0681,16.444357 0.0682,16.444359 -2.68272,2.946795 c -1.4754801,1.620737 -2.7563001,2.908906 -2.8462601,2.862593 -1.81141,-0.932506 -8.63219,-4.169979 -8.78541,-4.169979 -0.61557,0 -0.41851,-0.730306 0.66715,-2.472166 l 1.20782,-1.937875 v -9.701228 -9.701231 h -6.2177 -6.21771 l 0.003,10.781771 0.003,10.781771 0.98917,0.445923 c 2.77524,1.25113 5.90169,2.596785 6.03327,2.596785 0.0817,0 0.94477,0.373518 1.91786,0.83004 0.97311,0.456523 2.42411,1.120585 3.22447,1.475695 0.80037,0.355108 1.93146,0.865598 2.51354,1.13442 2.42208,1.118584 9.0399701,3.949544 9.5911501,4.102846 l 0.59531,0.165576 V -7.5665232 3.6604382 h -6.0413101 c -3.32274,0 -6.12071,-0.079375 -6.21771,-0.1763898 z m 30.25068,-8.979135 c 0,-8.9289412 0.013,-9.1559142 0.49842,-8.8022722 0.27414,0.199649 1.41584,0.993659 2.53712,1.764461 1.12128,0.770806 2.79855,1.991196 3.72732,2.7119796 0.92874,0.7207858 1.76244,1.3105183 1.85261,1.3105183 0.0902,0 0.98925,0.6136693 1.99792,1.3637127 l 1.83391,1.3637128 -0.0721,4.655558 -0.0721,4.6555581 -6.15156,0.071022 -6.15157,0.071022 z M -231.10089,-8.2168399 c -1.16877,-0.5496798 -2.71659,-1.2205309 -3.43958,-1.4907789 -0.723,-0.2702507 -1.55461,-0.6426782 -1.84803,-0.8276222 -0.29342,-0.184941 -1.00779,-0.504912 -1.5875,-0.711041 -0.5797,-0.206132 -2.06603,-0.847373 -3.30296,-1.424985 -1.23692,-0.577609 -2.9038,-1.314469 -3.70416,-1.637461 -0.80037,-0.322996 -1.99099,-0.832745 -2.64584,-1.132777 -3.01152,-1.379797 -4.0997,-1.861526 -7.9375,-3.513868 -4.9498,-2.131115 -5.79607,-2.505368 -7.67291,-3.393278 -0.80037,-0.378643 -2.11005,-0.940253 -2.91042,-1.248021 -1.35121,-0.519589 -2.0412,-0.824413 -5.73803,-2.534955 -0.75483,-0.34926 -1.43912,-0.635018 -1.52065,-0.635018 -0.0815,0 -0.8927,-0.33804 -1.80259,-0.7512 -0.9099,-0.413157 -1.98178,-0.886854 -2.38196,-1.052661 l -0.7276,-0.301461 v -27.522339 -27.522339 h 8.33437 8.33438 v 23.790463 23.79046 l 1.65364,0.785381 c 2.98157,1.416061 5.22446,2.433696 5.36393,2.433696 0.16548,0 7.63848,3.305275 8.63879,3.820898 0.38907,0.200551 0.77603,0.296018 0.8599,0.212148 0.0839,-0.08387 0.15249,-12.457311 0.15249,-27.496537 v -27.344047 l 8.26823,0.06991 8.26821,0.06992 0.067,38.298438 c 0.0535,30.559224 3e-5,38.2954107 -0.26458,38.2834648 -0.1824,-0.00823 -1.28789,-0.4647089 -2.45667,-1.0143887 z M 22.602896,-8.8934483 c -1.93516,-1.4228707 -5.14787,-3.7094987 -5.59552,-3.9825717 -0.23854,-0.145521 -1.56845,-1.098021 -2.95534,-2.116667 -1.38689,-1.018646 -2.77878,-1.988283 -3.09308,-2.154748 -0.31433,-0.166465 -1.5382099,-1.029669 -2.7197899,-1.918229 -1.18157,-0.888561 -2.21321,-1.615565 -2.29253,-1.615565 -0.0793,0 -0.99854,-0.631065 -2.04272,-1.402365 -1.04418,-0.771301 -2.58313,-1.862654 -3.41986995,-2.425229 l -1.52135005,-1.022864 v -18.344562 -18.344563 h 6.2177 6.2177099 v 15.610951 15.610954 l 2.48788,1.845522 c 3.06088,2.270588 3.53777,2.503548 4.39878,2.14881 0.3597,-0.148185 1.72553,-1.080471 3.03522,-2.071748 l 2.38125,-1.80232 0.0682,-15.671083 0.0683,-15.671086 h 6.21559 6.21562 v 18.326465 18.326465 l -2.05053,1.40598 c -1.12778,0.773287 -2.94348,2.048592 -4.03489,2.834008 -1.09141,0.785418 -2.96386,2.094796 -4.16102,2.909729 l -2.17665,1.481698 -0.0723,4.425297 -0.0723,4.4252962 z M -171.82585,-23.060396 c -0.29104,-0.12468 -1.95791,-0.778434 -3.70416,-1.452788 -1.74625,-0.674357 -3.49102,-1.397725 -3.87729,-1.607489 -0.38626,-0.209764 -0.8401,-0.381389 -1.00856,-0.381389 -0.16846,0 -0.924,-0.285509 -1.67897,-0.634466 -0.75499,-0.348958 -2.14659,-0.901242 -3.09247,-1.227301 -0.94589,-0.326057 -1.95464,-0.754922 -2.24169,-0.953032 -0.28704,-0.198112 -0.67974,-0.360201 -0.87267,-0.360201 -0.19293,0 -0.85106,-0.245517 -1.46248,-0.545592 -0.61143,-0.300077 -2.0015,-0.847728 -3.08901,-1.217001 -1.08752,-0.369274 -2.21533,-0.838132 -2.50627,-1.041908 -0.29094,-0.203774 -0.703,-0.370499 -0.91572,-0.370499 -0.21273,0 -0.87083,-0.226737 -1.46249,-0.503859 -0.59163,-0.277122 -1.84962,-0.768416 -2.79551,-1.091761 -0.94588,-0.323347 -1.83885,-0.681789 -1.98437,-0.796541 -0.14552,-0.114753 -1.03849,-0.4727 -1.98438,-0.795436 -0.94588,-0.322739 -1.83885,-0.668925 -1.98437,-0.769302 -0.26305,-0.181457 -3.12234,-1.34039 -7.67292,-3.110008 -1.30968,-0.50931 -2.97656,-1.195197 -3.70416,-1.524196 -0.72761,-0.328999 -1.65034,-0.675984 -2.05052,-0.77108 l -0.72761,-0.172898 v -20.764751 -20.764751 h 24.87308 24.87311 l -0.0684,14.485937 -0.0684,14.485938 h -8.20208 -8.20208 l -0.0705,-7.077604 -0.0705,-7.077605 h -8.33004 -8.33006 l 0.006,8.665105 0.006,8.665104 2.838,1.148865 c 1.56091,0.631878 3.06562,1.269998 3.34383,1.418045 0.27821,0.148048 1.15824,0.493631 1.95559,0.767962 0.79734,0.27433 1.58176,0.598368 1.74312,0.720082 0.16135,0.121716 1.06728,0.485216 2.01317,0.80778 0.94588,0.322565 2.01744,0.744038 2.38125,0.936607 0.3638,0.192566 1.1377,0.502592 1.71979,0.688946 0.58208,0.186351 1.29646,0.491934 1.5875,0.679071 0.29104,0.187135 1.12448,0.53662 1.85208,0.776629 0.7276,0.240012 1.94061,0.723691 2.6956,1.074844 0.75496,0.351152 1.53215,0.63846 1.72707,0.63846 0.19489,0 0.58923,0.164079 0.87627,0.36462 0.28705,0.200541 1.08405,0.555165 1.77112,0.788051 1.48778,0.504288 5.09495,1.930418 6.02682,2.382755 l 0.66145,0.321083 0.0701,7.729037 c 0.0386,4.250971 -0.0209,7.720978 -0.13229,7.711131 -0.11133,-0.0098 -0.44055,-0.119917 -0.7316,-0.244594 z m 7.07475,-27.447719 0.069,-11.315822 h 18.52084 18.52083 v 8.069792 8.069791 h -6.08542 -6.08541 l -0.1323,-2.645833 -0.13229,-2.645833 -6.14648,-0.07101 -6.14648,-0.07101 -0.0712,5.891845 -0.0712,5.891842 -6.15442,0.07103 -6.1544,0.07103 z m 84.603379,-6.024155 v -5.423959 h 16.139582 16.139583 v 5.423959 5.423958 h -16.139583 -16.139582 z"
       id="path4336" /><path
       style="fill:#ffffff;fill-opacity:1;stroke-width:7.43"
       d="m 496.50872,449.52439 c -2.76886,-0.72356 -2.9429,-8.02773 -2.9429,-123.50582 0,-67.50523 0.56756,-122.38743 1.26124,-121.96045 5.07075,3.12119 120.68475,54.91679 122.58087,54.91679 0.33021,0 0.60038,-18.91862 0.60038,-42.04138 v -42.04138 h -32.74347 -32.74347 l -0.46922,21.68979 -0.46923,21.6898 -29.00855,-13.49129 -29.00855,-13.49129 v -35.10499 -35.10499 h 92.49104 92.49104 v 111.83007 c 0,61.50654 -0.25777,111.83008 -0.57283,111.83008 -0.31504,0 -11.8554,-4.98086 -25.64523,-11.06859 -63.99821,-28.25292 -89.53501,-39.24644 -93.44507,-40.22778 l -4.23688,-1.0634 -1.10794,36.69022 c -0.60937,20.17963 -1.1098,55.79805 -1.11207,79.15203 l -0.004,42.4618 -26.48607,-0.19507 c -14.56734,-0.10729 -27.81037,-0.54116 -29.42896,-0.96415 z"
       id="path4343"
       transform="matrix(0.26458333,0,0,0.26458333,-464.83499,-115.66485)" /><path
       style="fill:#ffffff;fill-opacity:1;stroke-width:7.43"
       d="M 278.31395,448.27736 C 250.10418,436.95742 204.32111,418.73594 176.5738,407.78517 148.82649,396.8344 125.58818,387.43311 124.93312,386.89341 c -0.65507,-0.53969 -1.41181,-41.65035 -1.68166,-91.35702 l -0.49063,-90.37576 109.72801,6.6e-4 109.72801,6.5e-4 v 63.9029 63.9029 h -36.99642 -36.99642 v -32.79228 -32.79227 h -36.18602 -36.18602 l 0.45085,39.65836 0.45085,39.65837 72.31117,29.15847 72.31118,29.15849 0.46738,23.80531 0.46738,23.80531 -6.07599,8.27716 c -3.34178,4.55244 -6.20071,8.20454 -6.35317,8.11579 -0.15246,-0.0888 -23.35791,-9.42316 -51.56767,-20.74309 z"
       id="path4345"
       transform="matrix(0.26458333,0,0,0.26458333,-464.83499,-115.66485)" /><path
       style="fill:#ffffff;fill-opacity:1;stroke-width:7.43"
       d="M 90.275941,399.9032 C 80.838725,383.35824 63.658658,342.40047 54.056944,313.55606 l -9.54059,-28.66078 0.444169,-54.0753 0.444169,-54.07529 35.735174,16.20495 35.735174,16.20494 v 27.43265 c 0,15.08795 -0.40268,27.43265 -0.89484,27.43265 -0.49216,0 -3.51914,-1.09651 -6.72662,-2.43668 -3.20748,-1.34017 -5.98543,-2.2861 -6.17323,-2.10207 -0.1878,0.18404 -0.75535,33.62154 -1.26124,74.30557 -0.83168,66.88507 -1.18497,74.02191 -3.687976,74.5029 -1.8509,0.35567 -4.453845,-2.4233 -7.855193,-8.3864 z"
       id="path4347"
       transform="matrix(0.26458333,0,0,0.26458333,-464.83499,-115.66485)" /><path
       style="fill:#ffffff;fill-opacity:1;stroke-width:7.43"
       d="M 220.06983,564.4434 C 214.39552,561.38465 201.15249,552.8966 190.64087,545.58106 168.75236,530.34777 132.80756,495.60945 114.61564,472.10754 55.016129,395.11175 15.458769,283.61459 2.6056441,156.39394 0.2774447,133.34934 0.35569363,126.15977 2.9428967,125.40687 71.459002,105.46803 128.65625,81.552876 169.84718,55.621314 189.44706,43.282297 199.90154,34.767656 219.12945,15.483402 L 233.09696,1.4749652 244.05568,13.31141 c 26.31853,28.426426 71.45692,57.661653 119.81983,77.604875 7.0484,2.906519 15.0855,6.301882 17.86023,7.545251 12.3541,5.535914 74.80181,25.980954 79.35674,25.980954 3.98124,0 2.34507,39.85529 -3.00308,73.152 -10.01715,62.36505 -22.50828,109.42514 -42.09101,158.57705 -36.7897,92.34082 -94.86254,163.97146 -167.07825,206.08472 -7.37994,4.30367 -14.56902,7.80769 -15.97572,7.78668 -1.40671,-0.021 -7.20026,-2.54081 -12.87459,-5.59954 z m 28.09173,-16.6442 c 31.61532,-18.93498 70.81247,-54.95204 94.7095,-87.02566 43.91153,-58.93628 77.05807,-137.79493 95.42443,-227.02346 5.06044,-24.58491 11.71914,-71.74839 12.07161,-85.50312 l 0.31651,-12.35111 -31.95145,-10.58286 C 340.83294,99.511452 281.04706,67.606823 244.21342,32.181388 l -11.39815,-10.962403 -9.62254,9.312063 C 207.1452,46.060837 186.50784,61.358053 164.85317,73.77462 128.7891,94.453398 93.011601,110.09579 47.086347,125.26382 l -31.95145,10.55282 0.391281,12.69371 c 0.58997,19.13953 7.974381,68.35368 14.870042,99.10288 11.764937,52.46236 27.51131,97.85425 48.86033,140.84913 34.94252,70.3709 75.22615,117.98838 130.69041,154.4833 10.03104,6.60031 20.04793,12.00058 22.2598,12.00058 2.21185,0 9.39151,-3.21617 15.9548,-7.14704 z"
       id="path4349"
       transform="matrix(0.26458333,0,0,0.26458333,-464.83499,-115.66485)" /><path
       style="fill:#ffffff;fill-opacity:1;stroke-width:7.43"
       d="m 162.27973,174.05132 v -24.384 h -30.21955 -30.21955 l -0.47066,20.84116 -0.47065,20.84116 -27.747316,-12.93646 -27.747312,-12.93646 -0.473806,-16.73339 -0.473806,-16.73339 20.653669,-7.34426 c 11.359519,-4.03934 30.175348,-11.4176 41.812951,-16.39614 l 21.15929,-9.05188 h 45.68651 45.68651 v 49.60883 49.60883 h -28.58814 -28.58814 z"
       id="path4351"
       transform="matrix(0.26458333,0,0,0.26458333,-464.83499,-115.66485)" /><path
       style="fill:#ffffff;fill-opacity:1;stroke-width:7.43"
       d="M 244.68084,148.82649 V 99.21766 h 29.42897 29.42896 v 49.60883 49.60883 h -29.42896 -29.42897 z"
       id="path4353"
       transform="matrix(0.26458333,0,0,0.26458333,-464.83499,-115.66485)" /><path
       style="fill:#ffffff;fill-opacity:1;stroke-width:7.43"
       d="m 370.38457,347.75486 -23.12276,-10.21418 v -23.20792 c 0,-12.94555 0.71088,-23.64726 1.60763,-24.20149 0.8842,-0.54645 4.28955,0.12697 7.56745,1.49661 l 5.95982,2.49018 v -90.62434 c 0,-49.84338 0.56756,-90.96274 1.26124,-91.37635 0.69368,-0.41362 12.99079,3.68213 27.3269,9.10166 14.33611,5.41954 27.05278,9.87539 28.25927,9.90189 1.77921,0.0391 2.09689,14.90008 1.68165,78.66557 l -0.51196,78.61739 -9.7288,28.35092 c -8.35412,24.34494 -15.41558,41.72414 -16.79144,41.32601 -0.21243,-0.0615 -10.79148,-4.70815 -23.509,-10.32595 z"
       id="path4355"
       transform="matrix(0.26458333,0,0,0.26458333,-464.83499,-115.66485)" /><path
       style="fill:#ffffff;fill-opacity:1;stroke-width:7.43"
       d="m 208.9794,305.49148 -7.95412,-3.63436 -0.0337,-14.71448 -0.0337,-14.71449 h 9.24911 9.2491 v 18.49821 c 0,10.17401 -0.56756,18.43099 -1.26124,18.34884 -0.69368,-0.0821 -4.8406,-1.78482 -9.21537,-3.78372 z"
       id="path4357"
       transform="matrix(0.26458333,0,0,0.26458333,-464.83499,-115.66485)" /><path
       style="fill:#ffffff;fill-opacity:1;stroke-width:7.43"
       d=""
       id="path4359"
       transform="matrix(0.26458333,0,0,0.26458333,-464.83499,-115.66485)" /><path
       style="fill:#ffffff;fill-opacity:1;stroke-width:7.43"
       d="m 253.50953,296.70837 -8.82869,-3.91 v -10.18511 -10.18511 h 10.08993 10.08993 l -0.0969,7.98786 c -0.0533,4.39333 -0.62086,10.73613 -1.26124,14.09511 l -1.16433,6.10725 z"
       id="path4361"
       transform="matrix(0.26458333,0,0,0.26458333,-464.83499,-115.66485)" /><path
       style="fill:#ffffff;fill-opacity:1;stroke-width:7.43"
       d="m 184.98208,518.48407 c -5.54946,-4.63799 -20.28678,-18.95266 -32.74958,-31.81038 l -22.65965,-23.37767 32.57228,-0.45757 c 17.91475,-0.25167 32.85835,-0.17151 33.20799,0.17813 0.34964,0.34964 0.42943,14.87022 0.1773,32.26796 l -0.45841,31.63225 z"
       id="path4363"
       transform="matrix(0.26458333,0,0,0.26458333,-464.83499,-115.66485)" /><path
       style="fill:#ffffff;fill-opacity:1;stroke-width:7.43"
       d="m 218.42055,542.55278 c -7.50634,-4.74498 -15.83053,-10.30594 -18.49821,-12.35768 l -4.85033,-3.73045 36.44978,-0.0533 36.44977,-0.0533 0.54664,-33.49643 c 0.30065,-18.42304 1.03047,-33.9787 1.62182,-34.56814 0.59134,-0.58945 7.02367,1.33088 14.29407,4.2674 7.27039,2.93651 18.13773,7.27699 24.14965,9.64551 6.01192,2.36852 11.53686,4.81435 12.27765,5.43518 1.9408,1.6265 -29.91157,33.11422 -46.29018,45.76025 -12.49748,9.64938 -30.04737,21.3234 -39.13947,26.03519 -2.77809,1.43968 -5.73808,0.2418 -17.01119,-6.88428 z"
       id="path4365"
       transform="matrix(0.26458333,0,0,0.26458333,-464.83499,-115.66485)" /><path
       style="fill:#ffffff;fill-opacity:1;stroke-width:7.43"
       d="m 363.51781,407.52112 c -1.68084,-1.68084 -1.30039,-44.75991 0.41929,-47.4759 1.56611,-2.47346 2.06893,-2.33766 20.7438,5.60218 l 6.30846,2.68212 -9.45973,18.89511 c -5.20284,10.39231 -10.31189,19.45109 -11.35342,20.13061 -2.38011,1.55283 -5.20117,1.62311 -6.6584,0.16589 z"
       id="path4367"
       transform="matrix(0.26458333,0,0,0.26458333,-464.83499,-115.66485)" /><path
       style="fill:#ffffff;fill-opacity:1;stroke-width:7.43"
       d="m 883.70984,405.46015 c -3.23719,-1.66839 -44.66897,-19.96663 -92.07063,-40.66274 L 705.45438,327.16808 V 224.12363 121.07918 h 31.11062 31.11063 v 89.88986 89.88987 l 7.98786,3.63197 c 25.21016,11.46271 52.96386,23.4319 54.33304,23.4319 0.97108,0 1.582,-39.93844 1.582,-103.4218 v -103.4218 h 30.26979 30.26979 V 264.8607 c 0,79.07984 -0.56755,143.74808 -1.26124,143.7072 -0.69368,-0.0409 -3.90985,-1.43936 -7.14703,-3.10775 z"
       id="path4369"
       transform="matrix(0.26458333,0,0,0.26458333,-464.83499,-115.66485)" /><path
       style="fill:#ffffff;fill-opacity:1;stroke-width:7.43"
       d="m 834.52142,449.5244 c -2.64714,-0.69177 -2.94289,-3.45654 -2.94289,-27.51061 v -26.74156 l 3.78372,1.54658 c 2.08105,0.85062 15.51327,6.80189 29.84938,13.22505 l 26.06566,11.67846 0.48439,13.39067 0.4844,13.39066 -11.41515,1.07803 c -12.58472,1.18847 -41.6802,1.15248 -46.30951,-0.0573 z"
       id="path4371"
       transform="matrix(0.26458333,0,0,0.26458333,-464.83499,-115.66485)" /><path
       style="fill:#ffffff;fill-opacity:1;stroke-width:7.43"
       d="m 924.06956,396.29169 v -54.91567 h 30.2698 30.26979 v 26.90648 26.90649 h 31.95145 31.9515 v -26.76895 c 0,-27.67351 0.6721,-32.91408 3.9599,-30.87565 1.0592,0.65672 14.4121,6.25746 29.6732,12.4461 l 27.7473,11.25206 -0.5886,43.45929 c -0.3237,23.90261 -0.8292,43.71253 -1.1233,44.02206 -0.2941,0.30952 -41.8394,0.99492 -92.3229,1.52311 l -91.78814,0.96036 z"
       id="path4373"
       transform="matrix(0.26458333,0,0,0.26458333,-464.83499,-115.66485)" /><path
       style="fill:#ffffff;fill-opacity:1;stroke-width:7.43"
       d="m 1057.7612,329.30861 c -27.7474,-11.04432 -68.98995,-27.54279 -91.65025,-36.66328 l -41.20056,-16.58271 -0.43721,-77.49172 -0.43721,-77.49172 h 93.61723 93.6173 l -1.1056,39.09848 c -0.608,21.50417 -1.1073,45.72001 -1.1094,53.81297 v 14.71449 h -30.2698 -30.2697 v -26.90649 -26.90648 h -31.9863 -31.98629 l 0.45524,33.92049 0.45523,33.92048 30.26982,12.3421 c 16.6484,6.78816 43.8912,17.7488 60.5396,24.357 16.6484,6.60819 30.8562,12.52202 31.573,13.14184 0.7168,0.61981 1.0952,13.65678 0.8408,28.97104 l -0.4624,27.84409 z"
       id="path4375"
       transform="matrix(0.26458333,0,0,0.26458333,-464.83499,-115.66485)" /><path
       style="fill:#ffffff;fill-opacity:1;stroke-width:7.43"
       d="m 1134.2765,260.91491 c 0,-14.65648 0.4917,-33.5751 1.0926,-42.04138 l 1.0927,-15.39324 h 68.696 68.6961 v 30.26979 30.2698 h -22.7024 -22.7023 v -10.08994 -10.08993 h -24.384 -24.384 v 21.86152 21.86152 h -22.7024 -22.7023 z"
       id="path4377"
       transform="matrix(0.26458333,0,0,0.26458333,-464.83499,-115.66485)" /><path
       style="fill:#ffffff;fill-opacity:1;stroke-width:7.43"
       d="m 1141.6153,449.48141 c -4.3288,-0.545 -5.4587,-1.58893 -6.3062,-5.82687 -0.568,-2.83961 -1.0326,-37.60837 -1.0326,-77.2639 v -72.10097 h 62.2212 62.2213 v 20.17986 20.17987 h -39.5189 -39.5189 v 37.83724 37.83724 h 24.384 24.384 v -23.54317 c 0,-17.76549 0.5158,-23.51922 2.102,-23.44557 1.1562,0.0537 11.183,4.1035 22.282,8.99959 l 20.1798,8.90198 0.4544,33.61719 0.4544,33.61719 -28.0499,1.10626 c -28.9129,1.1403 -94.9198,1.07956 -104.2566,-0.0959 z"
       id="path4379"
       transform="matrix(0.26458333,0,0,0.26458333,-464.83499,-115.66485)" /><path
       style="fill:#ffffff;fill-opacity:1;stroke-width:7.43"
       d="m 1297.596,345.15974 c 0.1094,-58.03813 0.677,-107.66601 1.2612,-110.28418 1.0311,-4.6205 1.6914,-4.07715 22.4795,18.49821 l 21.4172,23.25852 0.024,85.95059 0.024,85.9506 -8.8287,1.06045 c -4.8557,0.58325 -15.0718,1.06703 -22.7023,1.07507 l -13.8737,0.0146 z"
       id="path4381"
       transform="matrix(0.26458333,0,0,0.26458333,-464.83499,-115.66485)" /><path
       style="fill:#ffffff;fill-opacity:1;stroke-width:0.92875"
       d="m 1134.4143,226.7949 c -0.018,-6.07982 0.03,-13.76551 0.1062,-17.07931 l 0.139,-6.0251 h 0.807 c 0.9819,0 0.9505,-0.89921 0.2896,8.30318 -0.5974,8.31714 -0.9223,14.26797 -1.1476,21.02069 -0.1405,4.20896 -0.1656,3.40394 -0.1942,-6.21946 z"
       id="path4383"
       transform="matrix(0.26458333,0,0,0.26458333,-464.83499,-115.66485)" /><path
       style="fill:#ffffff;fill-opacity:1;stroke-width:0.92875"
       d="m 1048.6172,229.02043 c 0,-0.27882 3.4998,-0.31531 30.2376,-0.31531 h 30.2377 l 0.1271,-16.02828 c 0.1235,-15.58636 0.5038,-33.84554 1.0935,-52.49918 0.2778,-8.78855 0.2855,-8.02046 0.1971,19.75945 -0.051,15.8969 -0.092,33.51487 -0.092,39.15104 l -10e-5,10.24759 h -30.9004 c -27.3269,0 -30.9004,-0.0365 -30.9004,-0.31531 z"
       id="path4385"
       transform="matrix(0.26458333,0,0,0.26458333,-464.83499,-115.66485)" /><path
       style="fill:#ffffff;fill-opacity:1;stroke-width:0.92875"
       d="m 1085.9289,340.41012 c -71.0341,-28.32339 -160.57402,-64.2092 -160.81707,-64.45226 -0.0742,-0.0742 -0.93629,-138.5712 -0.93693,-150.51689 l -2.3e-4,-4.36179 h 93.49643 93.4964 l -0.057,1.4189 c -0.032,0.78039 -0.1537,5.06073 -0.2714,9.51186 -0.1178,4.45113 -0.4029,14.85637 -0.6336,23.12276 -0.2307,8.26638 -0.5636,20.89456 -0.7397,28.06262 -0.3475,14.14367 -0.6559,45.68919 -0.4447,45.49511 0.072,-0.0659 0.2248,-8.24819 0.3404,-18.1829 0.199,-17.11203 0.4716,-30.86649 0.8308,-41.92159 0.098,-3.00698 0.1734,7.91177 0.1933,27.90497 l 0.033,32.84483 h -15.8359 c -8.7098,0 -22.544,-0.0709 -30.7428,-0.15766 l -14.9068,-0.15765 8.8287,-0.10858 8.8286,-0.10857 -8.9863,-0.0491 -8.9863,-0.0491 v -26.90649 -26.90648 h -32.0566 -32.05655 l -1.1e-4,2.89034 c -2.1e-4,8.08981 0.88053,64.91868 1.00806,65.0384 0.32833,0.3082 47.0424,19.25542 80.3421,32.58673 30.8447,12.34846 41.1001,16.58943 41.7939,17.28323 0.4634,0.46334 0.6649,3.00518 0.8766,11.05813 0.2452,9.32477 -0.2325,45.42813 -0.6005,45.39132 -0.074,-0.007 -9.9714,-3.93593 -21.9952,-8.73018 z"
       id="path4387"
       transform="matrix(0.26458333,0,0,0.26458333,-464.83499,-115.66485)" /><path
       style="fill:#ffffff;fill-opacity:1;stroke-width:0.92875"
       d="m 1107.37,348.93193 c -0.2312,-0.10633 -13.2851,-5.30951 -29.0086,-11.56267 -49.9415,-19.8615 -152.99574,-61.15757 -153.24791,-61.40974 -0.0757,-0.0757 -0.93806,-138.17398 -0.93861,-150.30834 l -2.1e-4,-4.572 h 93.50173 93.5017 l -0.07,1.83931 c -0.1374,3.60818 -1.3208,47.42028 -1.7502,64.79628 -0.2599,10.51962 -0.5144,41.1381 -0.3406,40.97889 0.07,-0.0641 0.2236,-8.2937 0.3413,-18.288 0.2019,-17.1471 0.4697,-30.57936 0.8339,-41.81972 0.097,-2.99682 0.1729,7.97932 0.1928,27.90497 l 0.033,32.84483 h -15.8359 c -8.7098,0 -22.544,-0.0709 -30.7428,-0.15766 -14.8763,-0.15733 -14.89,-0.15788 -6.7088,-0.26647 l 8.1981,-0.10882 -8.3557,-0.0488 -8.3557,-0.0488 V 201.7987 174.89222 h -32.0566 -32.05655 l -0.003,2.46993 c -0.005,3.9548 0.6383,50.98117 0.8008,58.57621 l 0.14801,6.91786 11.03587,4.50139 c 23.74517,9.68538 42.10727,17.11038 66.00497,26.69019 38.4279,15.40449 44.8698,18.07499 45.3069,18.78226 0.6631,1.07294 0.9826,14.97281 0.7294,31.72948 -0.2623,17.3548 -0.44,24.59731 -0.603,24.57997 -0.073,-0.008 -0.3229,-0.10121 -0.5541,-0.20751 z"
       id="path4389"
       transform="matrix(0.26458333,0,0,0.26458333,-464.83499,-115.66485)" /><path
       style="fill:#ffffff;fill-opacity:1;stroke-width:0.92875"
       d="m 1088.031,341.25008 c -10.8677,-4.33457 -30.9215,-12.33355 -44.5639,-17.77549 -43.88481,-17.50559 -118.15952,-47.32098 -118.34441,-47.50587 -0.0499,-0.0499 -0.23345,-24.58613 -0.40793,-54.52501 -0.17447,-29.93888 -0.38141,-64.76862 -0.45986,-77.39943 l -0.14262,-22.9651 h 93.57572 93.5758 l -0.099,0.78827 c -0.055,0.43356 -0.1508,3.05852 -0.2138,5.83325 -0.063,2.77473 -0.3496,13.46375 -0.6368,23.75338 -0.2872,10.28963 -0.6669,24.66778 -0.8437,31.95145 -0.3449,14.20873 -0.6607,45.26693 -0.4585,45.08311 0.067,-0.0613 0.2215,-8.24355 0.3424,-18.1829 0.2084,-17.12874 0.4807,-30.67944 0.8384,-41.7198 0.097,-2.99682 0.1729,7.97932 0.1928,27.90497 l 0.033,32.84483 h -15.8359 c -8.7098,0 -22.544,-0.0709 -30.7428,-0.15766 -13.5608,-0.14342 -14.2805,-0.16754 -7.97,-0.26708 l 6.9368,-0.10943 -7.0945,-0.0482 -7.0944,-0.0482 V 201.79868 174.8922 h -32.0895 -32.08952 l 0.13908,10.24758 c 0.59559,43.8857 0.81884,57.56179 0.94149,57.67696 0.12242,0.11495 11.36056,4.71525 31.88265,13.05109 14.1715,5.75626 27.1269,10.97607 48.768,19.64891 32.2496,12.92422 40.9684,16.53679 41.5225,17.20437 0.4238,0.51066 0.6249,3.17084 0.8336,11.02792 0.2508,9.44148 -0.2259,45.42504 -0.6014,45.39343 -0.073,-0.006 -9.0254,-3.55773 -19.8931,-7.89233 z"
       id="path4391"
       transform="matrix(0.26458333,0,0,0.26458333,-464.83499,-115.66485)" /><path
       style="fill:#ffffff;fill-opacity:1;stroke-width:0.92875"
       d="m 1101.7995,346.73432 c -3.295,-1.31985 -25.6663,-10.24196 -49.7139,-19.82691 -36.3612,-14.49285 -75.09239,-30.00893 -119.44829,-47.85204 -4.0744,-1.63901 -7.45392,-3.02595 -7.51007,-3.0821 -0.0895,-0.0895 -0.9509,-135.32989 -0.95211,-149.48126 l -4.6e-4,-5.41283 h 93.51573 93.5156 l -0.086,1.83931 c -0.091,1.93076 -1.1705,41.42232 -1.5417,56.388 -0.5123,20.65718 -0.8281,49.03481 -0.5425,48.74919 0.049,-0.0489 0.1911,-8.2233 0.3159,-18.16538 0.2156,-17.17292 0.4837,-30.34853 0.8404,-41.30436 0.098,-3.01352 0.1736,7.86823 0.1936,27.90497 l 0.033,32.84483 h -15.8359 c -21.9316,0 -47.7405,-0.27545 -39.8689,-0.42551 l 5.7806,-0.1102 -5.9383,-0.0475 -5.9383,-0.0474 v -26.90649 -26.90648 h -32.0566 -32.05655 l -0.002,2.57503 c -0.002,3.41451 0.61392,47.76503 0.80083,57.62113 l 0.14697,7.74954 9.2491,3.77316 c 23.93135,9.76274 40.47755,16.4549 66.95095,27.07837 37.5939,15.08604 45.4688,18.34119 46.0419,19.03168 0.4254,0.51256 0.6293,3.18384 0.834,10.92282 0.2516,9.50906 -0.2248,45.5276 -0.6017,45.5 -0.074,-0.005 -2.8297,-1.08969 -6.1247,-2.40956 z"
       id="path4393"
       transform="matrix(0.26458333,0,0,0.26458333,-464.83499,-115.66485)" /><path
       style="fill:#ffffff;fill-opacity:1;stroke-width:7.43"
       d="m 1393.2242,384.67864 -0.027,-65.16414 -22.7677,-25.94657 c -12.5222,-14.27061 -30.887,-34.70273 -40.8107,-45.40469 -28.7913,-31.0493 -32.2217,-35.38393 -32.2217,-40.71558 v -4.8082 h 22.3786 22.3786 l 17.5607,19.95009 c 9.6584,10.97255 20.5626,23.61002 24.2315,28.08327 6.4914,7.91457 6.7016,8.02246 7.8202,4.0135 0.6323,-2.26583 1.225,-14.9033 1.3172,-28.08327 l 0.1676,-23.96359 h 22.7023 22.7024 v 54.23338 c 0,29.82836 -0.5027,85.44911 -1.1144,123.60166 l -1.1123,69.36828 h -21.5879 -21.5879 z"
       id="path4395"
       transform="matrix(0.26458333,0,0,0.26458333,-464.83499,-115.66485)" /></g></svg>
